<?xml version="1.0" standalone="no"?>
<!DOCTYPE svg PUBLIC "-//W3C//DTD SVG 1.1//EN" "http://www.w3.org/Graphics/SVG/1.1/DTD/svg11.dtd" >
<svg>
<metadata>
Created by FontForge 20090914 at Thu Oct 20 14:26:29 2016
 By www-data
Copyright 2013 Google Inc. All Rights Reserved.
</metadata>
<defs>
<font id="NotoEmoji" horiz-adv-x="2600" >
  <font-face 
    font-family="Noto Emoji"
    font-weight="400"
    font-stretch="normal"
    units-per-em="2048"
    panose-1="2 11 5 9 4 5 4 2 2 4"
    ascent="1638"
    descent="-410"
    bbox="-47.998 -550.998 2681 2163"
    underline-thickness="102"
    underline-position="-103"
    unicode-range="U+000D-U+FE837"
  />
<missing-glyph 
d="M723 1733h1153v-2002h-1153v2002zM866 -127h867v1718h-867v-1718z" />
    <glyph glyph-name=".notdef" 
d="M723 1733h1153v-2002h-1153v2002zM866 -127h867v1718h-867v-1718z" />
    <glyph glyph-name="NULL" 
 />
    <glyph glyph-name="nonmarkingreturn" unicode="&#xd;" 
 />
    <glyph glyph-name="space" unicode=" " 
 />
    <glyph glyph-name="numbersign" unicode="#" 
d="M1740 953l-86 -449h383v-188h-420l-113 -586h-201l115 586h-399l-112 -586h-197l107 586h-354v188h391l89 449h-376v188h410l112 591h202l-113 -591h402l115 591h197l-115 -591h359v-188h-396zM1055 504h399l87 449h-398z" />
    <glyph glyph-name="zero" unicode="0" 
d="M822 -32.5c-108 176.333 -162 431.833 -162 766.5c0 349.333 52.333 608.333 157 777s264.667 253 480 253c212 0 372.167 -88.5 480.5 -265.5s162.5 -431.833 162.5 -764.5c0 -350.667 -53 -610.167 -159 -778.5s-267.333 -252.5 -484 -252.5
c-208.667 0 -367 88.167 -475 264.5zM1594.5 109c62.333 129.333 93.5 337.668 93.5 625.001c0 288 -31.5 496.167 -94.5 624.5s-161.833 192.5 -296.5 192.5c-133.333 0 -230.5 -63.667 -291.5 -191s-91.5 -336 -91.5 -626c0 -288.667 30.333 -497.334 91 -626.001
s158 -193 292 -193c136 0 235.167 64.667 297.5 194z" />
    <glyph glyph-name="one" unicode="1" 
d="M1665 -269l-242 0.000976562v1250c0 42 0.333008 85.5 1 130.5s1.66699 88.167 3 129.5l4 127c1.33301 40.667 2.33301 76.667 3 108l-40.5 -42.5c-11.667 -11.667 -23.5 -22.834 -35.5 -33.501l-89 -79l-203 -166l-132 169l525 409h206v-2002z" />
    <glyph glyph-name="two" unicode="2" 
d="M1925 -273l-1250 -0.000976562v213l480 522l194 215c74 84 133.167 169.167 177.5 255.5s66.5 179.833 66.5 280.5c0 104 -29 185.667 -87 245s-136.667 89 -236 89c-86.667 0 -165 -17.5 -235 -52.5s-136.333 -79.833 -199 -134.5l-140 163
c91.333 81.333 185.5 140.833 282.5 178.5s195.167 56.5 294.5 56.5c176 0 315.333 -48.333 418 -145s154 -226.667 154 -390c0 -89.333 -16 -174.666 -48 -255.999s-76.167 -162 -132.5 -242s-155.833 -196.667 -298.5 -350l-385 -410v-11h944v-227z" />
    <glyph glyph-name="three" unicode="3" 
d="M1438 785l-0.000976562 -8c162 -20 285 -71.333 369 -154s126 -190.334 126 -323.001c0 -185.333 -63.333 -331.166 -190 -437.499s-308.667 -159.5 -546 -159.5c-99.333 0 -193 7.83301 -281 23.5s-171 43.834 -249 84.501v233c79.333 -42 165.333 -74.333 258 -97
s181.667 -34 267 -34c157.333 0 277.5 32.667 360.5 98s124.5 164.333 124.5 297c0 116 -43.667 204 -131 264s-217.666 90 -390.999 90h-182v207h182c144.667 0 257.5 34.5 338.5 103.5s121.5 160.833 121.5 275.5c0 94 -31.333 168 -94 222s-145.334 81 -248.001 81
c-98.667 0 -185.167 -15.5 -259.5 -46.5s-145.166 -70.833 -212.499 -119.5l-126 172c80 64.667 171.667 115 275 151s211 54 323 54c187.333 0 333.833 -45 439.5 -135s158.5 -210.667 158.5 -362c0 -126.667 -37.667 -232.334 -113 -317.001s-182 -139 -320 -163z" />
    <glyph glyph-name="four" unicode="4" 
d="M2029 179h-292v-449h-241v449h-925v218l908 1347h258v-1337h292v-228zM1496 407v488c0 58 1.16699 134.667 3.5 230s5.5 177 9.5 245l5 116h-13c-12 -36.667 -30.5 -79.5 -55.5 -128.5s-47.5 -88.167 -67.5 -117.5l-563 -833h681z" />
    <glyph glyph-name="five" unicode="5" 
d="M1714.5 -119c-126.333 -116 -303.832 -174.001 -532.499 -174.001c-92 0 -181.333 9 -268 27s-159.667 45 -219 81v236c56 -40 132.167 -72 228.5 -96s184.833 -36 265.5 -36c152 0 266.5 36.833 343.5 110.5s115.5 180.167 115.5 319.5
c0 130.667 -40.167 230.5 -120.5 299.5s-197.166 103.5 -350.499 103.5c-40 0 -87.833 -3.33301 -143.5 -10s-113.5 -15 -173.5 -25l-123 78l75 942h946v-227h-729l-54 -574c35.333 6.66699 77.166 12.834 125.499 18.501s102.166 8.5 161.499 8.5
c192 0 347 -52.167 465 -156.5s177 -247.5 177 -429.5c0 -214.667 -63.167 -380 -189.5 -496z" />
    <glyph glyph-name="six" unicode="6" 
d="M1676 1754.5c45.333 -5 79.999 -11.166 103.999 -18.499v-212c-32 10.667 -68.167 18.834 -108.5 24.501s-80.166 8.5 -119.499 8.5c-132 0 -243 -26.833 -333 -80.5s-159.5 -136.834 -208.5 -249.501s-78.167 -271.334 -87.5 -476.001h17c44 79.333 102 138 174 176
s154 57 246 57c178 0 317.5 -54 418.5 -162s151.5 -256.667 151.5 -446c0 -208 -54.833 -372.167 -164.5 -492.5s-257.5 -180.5 -443.5 -180.5c-198.667 0 -357.167 77.333 -475.5 232s-177.5 372 -177.5 652c0 399.333 73.167 695 219.5 887s364.833 288 655.5 288
c42.667 0 86.667 -2.5 132 -7.5zM1594 682.001c-63.333 70.667 -152 106 -266 106c-116.667 0 -214.167 -37.333 -292.5 -112s-117.5 -158.667 -117.5 -252c0 -138 36.833 -257.667 110.5 -359s170.5 -152 290.5 -152c114.667 0 205 39 271 117s99 193.333 99 346
c0 133.333 -31.667 235.333 -95 306z" />
    <glyph glyph-name="seven" unicode="7" 
d="M918 -269l771 1775h-1033v227h1288v-198l-760 -1804h-266z" />
    <glyph glyph-name="eight" unicode="8" 
d="M1780.5 1006.5c-55.667 -79.667 -147.501 -151.832 -275.501 -216.499c147.333 -77.333 254.833 -160 322.5 -248s101.5 -184.667 101.5 -290c0 -164 -57.167 -296.5 -171.5 -397.5s-266.833 -151.5 -457.5 -151.5c-198.667 0 -353.167 47.5 -463.5 142.5
s-165.5 226.833 -165.5 395.5c0 113.333 31.667 215.666 95 306.999s161 168.333 293 231c-118.667 76 -202 155.333 -250 238s-72 172 -72 268c0 146 53 262.333 159 349s240.667 130 404 130c166.667 0 302.334 -43 407.001 -129s157 -203.667 157 -353
c0 -104 -27.833 -195.833 -83.5 -275.5zM1582 -2.49805c68.667 59 103 142.835 103 251.502c0 84 -29.667 158 -89 222s-156.333 128.333 -291 193l-41 19c-114.667 -54.667 -201.334 -117.334 -260.001 -188.001s-88 -156.334 -88 -257.001
c0 -104.667 32.333 -185.667 97 -243s158.667 -86 282 -86c122.667 0 218.334 29.5 287.001 88.5zM1013 1120.5c21.333 -42.333 51.667 -80.001 91 -113.001s105.666 -71.5 198.999 -115.5c120 55.333 203 113.333 249 174s69 129.667 69 207
c0 91.333 -28.667 161.333 -86 210s-136.666 73 -237.999 73c-96.667 0 -173.5 -24.167 -230.5 -72.5s-85.5 -118.5 -85.5 -210.5c0 -59.333 10.667 -110.166 32 -152.499z" />
    <glyph glyph-name="nine" unicode="9" 
d="M922.5 -289c-47 5.33301 -81.167 11 -102.5 17v213c32 -11.333 68.167 -19.833 108.5 -25.5s80.166 -8.5 119.499 -8.5c198 0 349.167 61.333 453.5 184s162.833 330 175.5 622h-18c-40.667 -76 -96.5 -133.833 -167.5 -173.5s-155.5 -59.5 -253.5 -59.5
c-177.333 0 -316.666 54.333 -417.999 163s-152 257 -152 445c0 204 54.333 367.333 163 490s257.667 184 447 184c201.333 0 360.666 -78.333 477.999 -235s176 -373 176 -649c0 -395.333 -72.667 -690 -218 -884s-364.666 -291 -657.999 -291
c-42 0 -86.5 2.66699 -133.5 8zM1005 782.5c62.667 -71 152 -106.5 268 -106.5c115.333 0 212.333 37.167 291 111.5s118 158.5 118 252.5c0 139.333 -36.667 259.333 -110 360s-170.333 151 -291 151c-116 0 -206.667 -39.5 -272 -118.5s-98 -193.833 -98 -344.5
c0 -132.667 31.333 -234.5 94 -305.5z" />
    <glyph glyph-name="nonbreakingspace" unicode="&#xa0;" 
 />
    <glyph glyph-name="copyright" unicode="&#xa9;" 
d="M2201.5 220c-93 -160.667 -219.829 -287.496 -380.496 -380.496s-334.334 -139.5 -521.001 -139.5c-190 0 -366.333 48.167 -529 144.5s-288.834 224.5 -378.501 384.5s-134.5 330.667 -134.5 512c0 185.333 46.667 358.666 140 519.999s220.666 288.666 381.999 381.999
s334.666 140 519.999 140c181.333 0 352 -44.833 512 -134.5s288.167 -215.834 384.5 -378.501s144.5 -339 144.5 -529c0 -186.667 -46.5 -360.334 -139.5 -521.001zM2115 1211.5c-84 145 -198.667 259.832 -344 344.499s-302.333 127 -471 127
c-168 0 -324.833 -42.167 -470.5 -126.5s-260.667 -199.166 -345 -344.499s-126.5 -302.333 -126.5 -471s42.333 -325.667 127 -471s199.667 -260 345 -344s302 -126 470 -126c168.667 0 325.5 42.167 470.5 126.5s259.667 199 344 344s126.5 301.833 126.5 470.5
s-42 325.5 -126 470.5zM1799 274.003c0 -1.33301 0.334961 -3.33105 1.00195 -5.99805c0 -10.667 -26.167 -32.834 -78.5 -66.501s-110 -59.5 -173 -77.5s-131.167 -27 -204.5 -27c-192 0 -350.5 61 -475.5 183s-187.5 275.667 -187.5 461c0 186 62.5 339.833 187.5 461.5
s283.5 182.5 475.5 182.5c89.333 0 170.166 -11 242.499 -33s136.166 -55 191.499 -99c4 -3.33301 6 -7 6 -11c0 -2.66699 -0.666992 -5 -2 -7l-148 -270c-2 -4 -5 -6 -9 -6h-6c-4 0 -12.167 5.16699 -24.5 15.5s-42.166 24.666 -89.499 42.999s-100.666 27.5 -159.999 27.5
c-90.667 0 -165.834 -28.167 -225.501 -84.5s-89.5 -129.5 -89.5 -219.5c0 -89.333 29.667 -162.333 89 -219s134.666 -85 225.999 -85c50 0 102.833 10.333 158.5 31s93.167 38.5 112.5 53.5s32.333 22.5 39 22.5c4 0 7.33301 -2.33301 10 -7z" />
    <glyph glyph-name="registered" unicode="&#xae;" 
d="M2201 221c-93.333 -161.333 -220.5 -288.5 -381.5 -381.5s-334.167 -139.5 -519.5 -139.5c-187.333 0 -362.333 47.667 -525 143s-289.5 223.5 -380.5 384.5s-136.5 332.833 -136.5 515.5s45.5 354.5 136.5 515.5s217.833 289.167 380.5 384.5s337.667 143 525 143
c185.333 0 358.5 -46.5 519.5 -139.5s288.167 -220.167 381.5 -381.5s140 -335.333 140 -522s-46.667 -360.667 -140 -522zM2114.5 1213.5c-84.333 145.667 -199.333 260.834 -345 345.501s-302.167 127 -469.5 127c-166 0 -322.167 -42.167 -468.5 -126.5
s-261.833 -199.333 -346.5 -345s-127 -302.834 -127 -471.501s42.333 -325.834 127 -471.501s200.167 -260.667 346.5 -345s302.5 -126.5 468.5 -126.5c167.333 0 323.833 42.333 469.5 127s260.667 199.834 345 345.501s126.5 302.5 126.5 470.5
s-42.167 324.833 -126.5 470.5zM1848 170c4 -4 5.99902 -9.33301 5.99902 -16c0 -7.33301 -2.83301 -13.833 -8.5 -19.5s-12.167 -8.5 -19.5 -8.5h-259c-10 0 -17.667 3.66699 -23 11l-297 396h-103v-379c0 -7.33301 -2.5 -13.5 -7.5 -18.5s-11.167 -7.5 -18.5 -7.5h-259
c-7.33301 0 -13.5 2.5 -18.5 7.5s-7.5 11.167 -7.5 18.5v1193c0 7.33301 2.5 13.833 7.5 19.5s11.167 8.5 18.5 8.5h529c116.667 0 216.834 -41.5 300.501 -124.5s125.5 -181.833 125.5 -296.5c0 -84 -23.833 -161.5 -71.5 -232.5s-111.5 -123.167 -191.5 -156.5zM1362 781
c43.333 0 80.833 17 112.5 51s47.5 74.667 47.5 122c0 50.667 -15.5 92.334 -46.5 125.001s-71.167 49 -120.5 49h-206c-4 0 -6 -2.33301 -6 -7v-334c0 -2.66699 1 -4.33398 3 -5.00098s6 -1 12 -1h204z" />
    <glyph glyph-name="exclamdbl" unicode="&#x203c;" 
d="M819 486c-10.667 0 -16 4.66699 -16 14l-70 992c0 3.33301 1.33301 6.66602 4 9.99902s7.33398 5 14.001 5h390c5.33301 0 9.66602 -1.16699 12.999 -3.5s5 -6.16602 5 -11.499l-68 -992c-2.66699 -9.33301 -8.66699 -14 -18 -14h-254zM1095.5 112.5
c37 -33.667 55.5 -82.834 55.5 -147.501c0 -64 -18.333 -113.167 -55 -147.5s-86 -51.5 -148 -51.5c-65.333 0 -116.166 17.333 -152.499 52s-54.5 83.667 -54.5 147c0 66.667 18.167 116.334 54.5 149.001s87.166 49 152.499 49c61.333 0 110.5 -16.833 147.5 -50.5z
M1526 486c-4 0 -7.66699 1.33301 -11 4s-5 6 -5 10l-70 992c0 3.33301 1.33301 6.66602 4 9.99902s7.33398 5 14.001 5h390c5.33301 0 9.66602 -1.16699 12.999 -3.5s5 -6.16602 5 -11.499l-69 -992c-1.33301 -9.33301 -7 -14 -17 -14h-254zM1802.5 112.5
c37 -33.667 55.5 -82.834 55.5 -147.501c0 -64 -18.333 -113.167 -55 -147.5s-86 -51.5 -148 -51.5c-65.333 0 -116.166 17.333 -152.499 52s-54.5 83.667 -54.5 147c0 66.667 18.167 116.334 54.5 149.001s87.166 49 152.499 49c61.333 0 110.5 -16.833 147.5 -50.5z" />
    <glyph glyph-name="uni2049" unicode="&#x2049;" 
d="M1368 362l-0.00195312 84.999c0 80 17.5 148.5 52.5 205.5s89 113 162 168s120.167 100.333 141.5 136s32 78.834 32 129.501c0 46.667 -15.833 83.667 -47.5 111s-76.5 41 -134.5 41c-54 0 -112.167 -11 -174.5 -33s-126.166 -49.667 -191.499 -83l-119 258
c93.333 50.667 180.833 87.667 262.5 111s157.167 35 226.5 35c160 0 285.833 -38 377.5 -114s137.5 -179.667 137.5 -311c0 -82 -17 -153.333 -51 -214s-87.667 -120.5 -161 -179.5s-125.666 -104.167 -156.999 -135.5s-47 -78.333 -47 -141v-69h-309zM1685 109.499
c36.667 -33.667 54.999 -82.832 54.999 -147.499c0 -64 -18.5 -113.167 -55.5 -147.5s-86.5 -51.5 -148.5 -51.5c-63.333 0 -113.5 16.833 -150.5 50.5s-55.5 83.167 -55.5 148.5c0 67.333 17.667 117.166 53 149.499s86.333 48.5 153 48.5
c62.667 0 112.334 -16.833 149.001 -50.5zM592.997 484.001c-5.33301 0 -9.66699 1.16699 -13 3.5s-5 5.5 -5 9.5l-68 992c0 4 1.33301 7.83301 4 11.5s6.66699 5.5 12 5.5h392c5.33301 0 9.66602 -1.83301 12.999 -5.5s5 -7.5 5 -11.5l-70 -992
c0 -4 -1.66699 -7.16699 -5 -9.5s-7.66602 -3.5 -12.999 -3.5h-252zM870.996 108.501c36 -34.333 54 -83.167 54 -146.5s-18.833 -112.333 -56.5 -147s-87.167 -52 -148.5 -52c-63.333 0 -113.333 17.167 -150 51.5s-55 83.5 -55 147.5c0 66 17.333 115.5 52 148.5
s85.667 49.5 153 49.5c64.667 0 115 -17.167 151 -51.5z" />
    <glyph glyph-name="uni20E3" unicode="&#x20e3;" 
d="M2222 1780c30.667 0 57 -11 79 -33s33 -48.333 33 -79v-1845c0 -30 -11.167 -56 -33.5 -78s-48.5 -33 -78.5 -33h-1845c-30 0 -56 11 -78 33s-33 48 -33 78v1845c0 30 11 56.167 33 78.5s48 33.5 78 33.5h1845zM563 16c0 -4.66699 2.33301 -7 7 -7h1459
c5.33301 0 8 2.33301 8 7v1459c0 4.66699 -2.66699 7 -8 7h-1459c-4.66699 0 -7 -2.33301 -7 -7v-1459zM2232 1700l-10.002 0.999023h-1845c-9.33301 0 -17.166 -3.16699 -23.499 -9.5s-9.5 -14.166 -9.5 -23.499v-1845c0 -5.33301 0.833008 -9.83301 2.5 -13.5
s3.83398 -7.16699 6.50098 -10.5l154 155c-7.33301 8.66699 -13.333 18.167 -18 28.5s-7 21.5 -7 33.5v1459c0 24 8.66699 44.667 26 62s38 26 62 26h1459c19.333 0 36.333 -5.66699 51 -17z" />
    <glyph glyph-name="trademark" unicode="&#x2122;" 
d="M1177 1636c7.33301 0 13.333 -2.33301 18 -7s7 -10.667 7 -18v-219c0 -7.33301 -2.33301 -13.5 -7 -18.5s-10.667 -7.5 -18 -7.5h-352v-985c0 -7.33301 -2.66699 -13.333 -8 -18s-11.333 -7 -18 -7h-225c-7.33301 0 -13.333 2.33301 -18 7s-7 10.667 -7 18v985h-352
c-6.66699 0 -12.667 2.5 -18 7.5s-8 11.167 -8 18.5v219c0 7.33301 2.66699 13.333 8 18s11.333 7 18 7h980zM2428 389c0 -7.33301 -2.33398 -14.001 -7.00098 -20.001s-11 -9 -19 -9h-215c-6.66699 0 -12.5 2.33301 -17.5 7s-7.83301 10.667 -8.5 18l-42 508l-163 -514
c-4 -12.667 -11.333 -19 -22 -19h-161c-5.33301 0 -10.5 1.5 -15.5 4.5s-8.5 7.83301 -10.5 14.5l-162 514l-42 -508c0 -7.33301 -2.66699 -13.333 -8 -18s-11.333 -7 -18 -7h-214c-7.33301 0 -13.5 2.5 -18.5 7.5s-7.5 12.167 -7.5 21.5l86 1217
c1.33301 6 4.33301 11.5 9 16.5s10.334 7.5 17.001 7.5h229c14 0 22.667 -6.33301 26 -19l208 -808l209 808c3.33301 12.667 12 19 26 19h228c6.66699 0 12.5 -1.66699 17.5 -5s7.83301 -9.66602 8.5 -18.999z" />
    <glyph glyph-name="uni2139" unicode="&#x2139;" 
d="M2262 216.5c-99.333 -171.667 -234.833 -307.166 -406.5 -406.499s-356.834 -149 -555.501 -149c-199.333 0 -384.833 49.667 -556.5 149s-307.167 234.833 -406.5 406.5s-149 357.167 -149 556.5c0 198.667 49.667 383.667 149 555s234.666 306.833 405.999 406.5
s357 149.5 557 149.5c198.667 0 383.834 -49.667 555.501 -149s307.167 -234.833 406.501 -406.5c99.333 -171.667 149 -356.834 149 -555.501c0 -199.333 -49.667 -384.833 -149 -556.5zM2121.5 1250.5c-86.333 147.667 -202.833 263.499 -349.5 347.499s-304 126 -472 126
c-169.333 0 -327.833 -42.667 -475.5 -128s-264 -201.5 -349 -348.5s-127.5 -305.167 -127.5 -474.5s42.5 -327.833 127.5 -475.5s201.333 -264 349 -349s306.167 -127.5 475.5 -127.5c168 0 325.5 42 472.5 126s263.5 200.167 349.5 348.5s129 307.5 129 477.5
c0 170.667 -43.167 329.834 -129.5 477.501zM1186 1036h228v-831h-228v831zM1391.5 1168c-21 -19.333 -51.498 -29 -91.498 -29s-70.5 9.33301 -91.5 28s-31.5 46.334 -31.5 83.001c0 37.333 10.167 65.166 30.5 83.499s51.166 27.5 92.499 27.5
c39.333 0 69.666 -8.83301 90.999 -26.5s32 -45.834 32 -84.501c0 -35.333 -10.5 -62.666 -31.5 -81.999z" />
    <glyph glyph-name="arrowboth" unicode="&#x2194;" 
d="M1693 974v402l877 -643l-877 -644v402h-787v-402l-877 644l877 643v-402h787z" />
    <glyph glyph-name="arrowupdn" unicode="&#x2195;" 
d="M1541 371h402l-643 -877l-644 877h402v787h-402l644 877l643 -877h-402v-787z" />
    <glyph glyph-name="uni2196" unicode="&#x2196;" 
d="M615 1444l1074 -166l-284 -284l580 -578l-340 -340l-578 580l-286 -288z" />
    <glyph glyph-name="uni2197" unicode="&#x2197;" 
d="M1984 1446l-166 -1074l-284 284l-578 -580l-340 340l580 578l-288 286z" />
    <glyph glyph-name="uni2198" unicode="&#x2198;" 
d="M1985 76l-1074 166l284 284l-580 578l340 340l578 -580l286 288z" />
    <glyph glyph-name="uni2199" unicode="&#x2199;" 
d="M616 75l166 1074l284 -284l578 580l340 -340l-580 -578l288 -286z" />
    <glyph glyph-name="uni21A9" unicode="&#x21a9;" 
d="M1214 350c290 0 495.667 34.332 617 102.999s182 189.334 182 362.001c0 172 -60.833 292.333 -182.5 361s-327.167 103 -616.5 103h-787v330h787c388.667 0 674 -65.5 856 -196.5s273 -330.167 273 -597.5c0 -268 -91.667 -467.5 -275 -598.5s-468 -196.5 -854 -196.5
h-349v-279l-609 445l609 447v-283h349z" />
    <glyph glyph-name="uni21AA" unicode="&#x21aa;" 
d="M1734 350v283.001l609 -447l-609 -445v279h-349c-386 0 -670.667 65.5 -854 196.5s-275 330.5 -275 598.5c0 267.333 91 466.5 273 597.5s467.333 196.5 856 196.5h787v-330h-787c-289.333 0 -494.833 -34.333 -616.5 -103s-182.5 -189 -182.5 -361
c0 -172.667 60.667 -293.334 182 -362.001s327 -103 617 -103h349z" />
    <glyph glyph-name="uni231A" unicode="&#x231a;" 
d="M2177 907v-302h-125c-19.333 -107.333 -59.5 -207.333 -120.5 -300s-136.167 -169 -225.5 -229v-353h-924v353c-110 74 -197.5 171.333 -262.5 292s-97.5 250 -97.5 388c0 135.333 31.5 262.666 94.5 381.999s151.5 218 265.5 296v355h924v-353
c91.333 -62.667 167 -140.167 227 -232.5s99.667 -191.166 119 -296.499h125zM881 1402.5c-114.667 -64.333 -206.667 -154.333 -276 -270s-104 -241.167 -104 -376.5c0 -130.667 32.667 -253.167 98 -367.5s155.333 -205.5 270 -273.5s239.667 -102 375 -102
c132 0 256 33.667 372 101s206.833 158.333 272.5 273s98.5 237.667 98.5 369c0 132.667 -33.667 256.667 -101 372s-158.5 206 -273.5 272s-237.833 99 -368.5 99c-127.333 0 -248.333 -32.167 -363 -96.5zM1797 1142l61.001 -104.999l-488 -280
c0 -35.333 -12.5 -65.333 -37.5 -90s-54.5 -37 -88.5 -37c-32.667 0 -61.834 12.167 -87.501 36.5s-38.5 55.166 -38.5 92.499l-286 166l60 104l288 -166c9.33301 5.33301 19.5 9.66602 30.5 12.999s22.167 5 33.5 5c12.667 0 24.5 -1.66699 35.5 -5
s21.167 -7.66602 30.5 -12.999zM1279 787.501c-8.66699 10.333 -20.332 15.5 -34.999 15.5c-13.333 0 -24.666 -5 -33.999 -15s-14 -20.667 -14 -32c0 -13.333 4.66699 -24.666 14 -33.999s20.666 -14 33.999 -14s24.666 4.66699 33.999 14s14 20.666 14 33.999
c0 10.667 -4.33301 21.167 -13 31.5zM1920 789.501c8.66699 -9 13 -20.167 13 -33.5s-4.33301 -24.666 -13 -33.999s-19.667 -14 -33 -14c-12.667 0 -23.834 4.66699 -33.501 14s-14.5 20.666 -14.5 33.999c0 12.667 4.83301 23.667 14.5 33s20.834 14 33.501 14
c13.333 0 24.333 -4.5 33 -13.5zM1532.5 1345c9.66699 9.33301 20.832 14 33.499 14c13.333 0 24.5 -4.83301 33.5 -14.5s13.5 -20.5 13.5 -32.5c0 -13.333 -4.66699 -24.666 -14 -33.999s-20.333 -14 -33 -14c-11.333 0 -22.166 4.33301 -32.499 13s-15.5 20 -15.5 34
c0 13.333 4.83301 24.666 14.5 33.999zM889.001 1278c-9.33301 9.33301 -14.002 20.668 -14.002 34.001c0 12 4.5 22.833 13.5 32.5s20.167 14.5 33.5 14.5c12.667 0 23.834 -4.33301 33.501 -13s14.5 -20.334 14.5 -35.001c0 -12.667 -4.66699 -23.667 -14 -33
s-20.666 -14 -33.999 -14c-12.667 0 -23.667 4.66699 -33 14zM1210 1431.5c9.33301 9 20.666 13.5 33.999 13.5s24.666 -4.5 33.999 -13.5s14 -20.5 14 -34.5c0 -13.333 -4.66699 -24.333 -14 -33s-20.666 -13 -33.999 -13s-24.666 4.33301 -33.999 13s-14 19.667 -14 33
c0 14 4.66699 25.5 14 34.5zM719.499 1042c-9.66699 -8.66699 -20.165 -12.999 -31.498 -12.999c-14.667 0 -26.334 5.16699 -35.001 15.5s-13 21.166 -13 32.499c0 14 5.16699 25.5 15.5 34.5s21.166 13.5 32.499 13.5s21.833 -4.66699 31.5 -14s14.5 -20.666 14.5 -33.999
c0 -14.667 -4.83301 -26.334 -14.5 -35.001zM635.001 722.004c-9.33301 -9.33301 -20.666 -14 -33.999 -14s-24.333 4.66699 -33 14s-13 20.666 -13 33.999s4.33301 24.5 13 33.5s19.667 13.5 33 13.5s24.666 -4.5 33.999 -13.5s14 -20.167 14 -33.5
s-4.66699 -24.666 -14 -33.999zM719.501 469.004c9.66699 -8.66699 14.501 -20.3359 14.501 -35.0029c0 -11.333 -4 -22.166 -12 -32.499s-19.333 -15.5 -34 -15.5c-12.667 0 -23.834 4.33301 -33.501 13s-14.5 20.334 -14.5 35.001c0 12.667 4.5 23.834 13.5 33.501
s20.5 14.5 34.5 14.5c11.333 0 21.833 -4.33301 31.5 -13zM956.002 166.002c-9.33301 -9.33301 -20.333 -14 -33 -14c-13.333 0 -24.666 4.66699 -33.999 14s-14 20 -14 32c0 13.333 4.66699 24.666 14 33.999s20.333 14 33 14c11.333 0 22.166 -4.33301 32.499 -13
s15.5 -19.667 15.5 -33s-4.66699 -24.666 -14 -33.999zM1278 79.502c-9.33301 -9 -20.666 -13.5 -33.999 -13.5s-24.666 4.5 -33.999 13.5s-14 20.167 -14 33.5s4.66699 24.5 14 33.5s20.666 13.5 33.999 13.5s24.666 -4.5 33.999 -13.5s14 -20.167 14 -33.5
s-4.66699 -24.5 -14 -33.5zM1599 232.002c9.33301 -9.33301 14 -20.668 14 -34.001c0 -12 -4.66699 -22.667 -14 -32s-20.666 -14 -33.999 -14c-12 0 -22.833 4.16699 -32.5 12.5s-14.5 19.5 -14.5 33.5c0 12.667 4.66699 23.834 14 33.501s20.666 14.5 33.999 14.5
c12.667 0 23.667 -4.66699 33 -14zM1832.5 399c-10.333 -8.66699 -21.166 -13 -32.499 -13c-14.667 0 -26.334 5.16699 -35.001 15.5s-13 21.166 -13 32.499c0 14.667 5.16699 26.334 15.5 35.001s21.166 13 32.499 13c12.667 0 23.834 -4.66699 33.501 -14
s14.5 -20.666 14.5 -33.999c0 -14.667 -5.16699 -26.334 -15.5 -35.001z" />
    <glyph glyph-name="uni231B" unicode="&#x231b;" 
d="M1995 -51c28 -6 51.1689 -20.166 69.502 -42.499s27.5 -48.5 27.5 -78.5c0 -34.667 -12.167 -64 -36.5 -88s-53.833 -36 -88.5 -36h-1335c-34.667 0 -64.167 12.333 -88.5 37s-36.5 53.667 -36.5 87c0 29.333 9 55 27 77s41 36.667 69 44c4 189.333 35.833 340 95.5 452
s140 193.833 241 245.5s156.167 86.5 165.5 104.5s14 33.667 14 47c0 46 -35.833 84.333 -107.5 115s-138.334 74.167 -200.001 130.5s-111.334 135.5 -149.001 237.5s-57.5 228.333 -59.5 379c-28 7.33301 -51 22 -69 44s-27 47.667 -27 77c0 34 12.5 63.167 37.5 87.5
s54.167 36.5 87.5 36.5h1335c33.333 0 62.5 -11.833 87.5 -35.5s37.5 -53.167 37.5 -88.5c0 -30 -9.16699 -56.167 -27.5 -78.5s-41.5 -36.5 -69.5 -42.5c-4 -195.333 -35.833 -349.5 -95.5 -462.5s-141.167 -196 -244.5 -249s-158.666 -88.833 -165.999 -107.5
s-11 -33 -11 -43c0 -46 35.167 -84 105.5 -114s136.666 -73 198.999 -129s112.333 -133.833 150 -233.5s58.5 -223.834 62.5 -372.501zM1036 607.001c-81.333 -42.667 -136.667 -78.002 -166 -106.002s-57 -61.5 -83 -100.5s-49.5 -96 -70.5 -171
s-32.833 -167.5 -35.5 -277.5h1234c-4 178.667 -33.833 318.834 -89.5 420.501s-140.667 177.834 -255 228.501s-171.5 116.334 -171.5 197.001c0 76 48 136.833 144 182.5s168.167 95.5 216.5 149.5s85.833 123.167 112.5 207.5s41.667 189.166 45 314.499h-1236
c2 -116 15.333 -216.833 40 -302.5s61.167 -157 109.5 -214s121.5 -108.5 219.5 -154.5s147 -107 147 -183c0 -34 -9.33301 -65 -28 -93s-51 -54 -97 -78zM1521 540.999c82.667 -42 140.499 -81 173.499 -117s62.333 -85.167 88 -147.5s42.834 -147.166 51.501 -254.499
h-1072c9.33301 127.333 34.5 229.666 75.5 306.999s98.5 136.333 172.5 177l66 35h445z" />
    <glyph glyph-name="uni23E9" unicode="&#x23e9;" 
d="M236 1365l1012 -585v585l1115 -645l-1115 -644v584l-1012 -584v1289z" />
    <glyph glyph-name="uni23EA" unicode="&#x23ea;" 
d="M2363 76l-1012 584v-584l-1115 644l1115 645v-585l1012 585v-1289z" />
    <glyph glyph-name="uni23EB" unicode="&#x23eb;" 
d="M655 -343l585 1012h-585l645 1115l644 -1115h-584l584 -1012h-1289z" />
    <glyph glyph-name="uni23EC" unicode="&#x23ec;" 
d="M1944 1784l-584 -1012h584l-644 -1115l-645 1115h585l-585 1012h1289z" />
    <glyph glyph-name="uni23F0" unicode="&#x23f0;" 
d="M1355 1533c147.333 -8.66699 284.501 -52.501 411.501 -131.501s228 -185 303 -318s112.5 -276.5 112.5 -430.5c0 -95.333 -14.167 -185.833 -42.5 -271.5s-67.833 -164.834 -118.5 -237.501l53 -259c1.33301 -3.33301 2 -7.33301 2 -12s0.333008 -13 1 -25
c0 -39.333 -10.833 -70.333 -32.5 -93s-53.834 -34 -96.501 -34l-659 5l-657 -5c-42.667 0 -75.167 11.167 -97.5 33.5s-33.5 53.5 -33.5 93.5c0 10.667 0.5 18.334 1.5 23.001s2.16699 9.33398 3.5 14.001l58 281c-46.667 70.667 -82.667 146.834 -108 228.501
s-38 167.834 -38 258.501c0 152 36.833 294.167 110.5 426.5s174.167 238.666 301.5 318.999s265.333 125.166 414 134.499v125h-75v125h263v-125h-77v-125zM1962.5 1033.5c-68.333 118.333 -161.999 211.834 -280.999 280.501s-246.167 103 -381.5 103
c-136 0 -263.5 -34.167 -382.5 -102.5s-212.333 -162 -280 -281s-101.5 -245.833 -101.5 -380.5c0 -138 34.667 -266.167 104 -384.5s162.833 -211.333 280.5 -279s244.167 -101.5 379.5 -101.5c136.667 0 264.167 34.5 382.5 103.5s211.666 163 279.999 282
s102.5 245.5 102.5 379.5c0 135.333 -34.167 262.166 -102.5 380.499zM1359 764c21.333 -10 37.832 -25.332 49.499 -45.999s17.5 -42.334 17.5 -65.001c0 -36 -11.5 -65.833 -34.5 -89.5s-55.167 -35.5 -96.5 -35.5l-140 -244l-106 60l143 246
c-5.33301 9.33301 -9.66602 19.5 -12.999 30.5s-5 22.167 -5 33.5c0 22.667 6 43.5 18 62.5s27.667 34.167 47 45.5v541h120v-539zM1333 619.001c9.33301 9.33301 13.999 20.666 13.999 33.999c0 12 -5 23 -15 33s-20.667 15 -32 15c-13.333 0 -24.666 -4.66699 -33.999 -14
s-14 -20.666 -14 -33.999c0 -14 5 -25.5 15 -34.5s21 -13.5 33 -13.5c12.667 0 23.667 4.66699 33 14zM1976 620.001c-8.66699 -10 -19.667 -14.999 -33 -14.999c-14 0 -25.5 4.66699 -34.5 14s-13.5 20.666 -13.5 33.999s4.5 24.666 13.5 33.999s20.5 14 34.5 14
c11.333 0 21.833 -4.66699 31.5 -14s14.5 -20.666 14.5 -33.999c0 -12 -4.33301 -23 -13 -33zM1652.5 1174c-9.66699 -8.66699 -20.167 -12.999 -31.5 -12.999c-14.667 0 -26.334 5.16699 -35.001 15.5s-13 21.166 -13 32.499c0 15.333 5.33301 26.833 16 34.5
s21.667 11.5 33 11.5c12.667 0 23.334 -4.5 32.001 -13.5s13 -20.5 13 -34.5c0 -13.333 -4.83301 -24.333 -14.5 -33zM1013 1176.5c-8.66699 -10.333 -20.332 -15.502 -34.999 -15.502c-11.333 0 -21.833 4.16699 -31.5 12.5s-14.5 19.5 -14.5 33.5
c0 12.667 4.16699 23.834 12.5 33.501s19.166 14.5 32.499 14.5c12.667 0 24 -4 34 -12s15 -19.333 15 -34c0 -11.333 -4.33301 -22.166 -13 -32.499zM1823 940.501c-10 9 -15.001 20.5 -15.001 34.5c0 12 4.66699 22.667 14 32s20.333 14 33 14
c14.667 0 26.334 -4.83301 35.001 -14.5s13 -20.167 13 -31.5c0 -12 -4.16699 -23 -12.5 -33s-19.833 -15 -34.5 -15c-12 0 -23 4.5 -33 13.5zM776.001 939.001c-10 -8 -21 -12 -33 -12c-14.667 0 -26.167 5 -34.5 15s-12.5 21 -12.5 33c2 14 7.33301 25.167 16 33.5
s19.667 12.5 33 12.5c12.667 0 23.5 -4.5 32.5 -13.5s13.5 -20.5 13.5 -34.5c0 -14.667 -5 -26 -15 -34zM691.501 619.501c-8.33301 -9 -18.833 -13.5 -31.5 -13.5c-14 0 -25.833 4.5 -35.5 13.5s-14.5 20.167 -14.5 33.5c0 11.333 4.5 22.166 13.5 32.499
s20.5 15.5 34.5 15.5c13.333 0 24.333 -4.66699 33 -14s13 -20.666 13 -33.999s-4.16699 -24.5 -12.5 -33.5zM775.001 365.501c9.33301 -9 14 -20.166 14 -33.499c0 -10.667 -3.33301 -21.334 -10 -32.001s-18.334 -16 -35.001 -16c-15.333 0 -27.166 5 -35.499 15
s-12.5 20 -12.5 30c0 12.667 4.16699 24.167 12.5 34.5s19.833 15.5 34.5 15.5c12 0 22.667 -4.5 32 -13.5zM1011 61.502c-10 -7.66699 -21.333 -11.502 -34 -11.502c-14 0 -25 4.83301 -33 14.5s-12 20.834 -12 33.501c0 14.667 4.83301 26 14.5 34s20.167 12 31.5 12
c12 0 23 -4.66699 33 -14s15 -20.666 15 -33.999c0 -15.333 -5 -26.833 -15 -34.5zM1332 -23.5c-10 -9 -20.667 -13.5 -32 -13.5c-13.333 0 -24.666 4.5 -33.999 13.5s-14 20.167 -14 33.5s4.66699 24.666 14 33.999s20.666 14 33.999 14s24.5 -4.66699 33.5 -14
s13.5 -20.666 13.5 -33.999s-5 -24.5 -15 -33.5zM1652.5 131c9.66699 -8.66699 14.501 -19.666 14.501 -32.999c0 -12.667 -4 -23.834 -12 -33.501s-19 -14.5 -33 -14.5c-11.333 0 -22.333 3.83301 -33 11.5s-16 19.167 -16 34.5c0 12 4.66699 23 14 33s20.666 15 33.999 15
c11.333 0 21.833 -4.33301 31.5 -13zM1889 297.501c-9.33301 -9 -20.668 -13.501 -34.001 -13.501c-15.333 0 -26.666 5.5 -33.999 16.5s-11 22.833 -11 35.5s4.83301 23 14.5 31s20.167 12 31.5 12c12.667 0 23.667 -4.66699 33 -14s14 -20.666 14 -33.999
s-4.66699 -24.5 -14 -33.5zM398.5 1559.5c19.667 41 48.501 79.498 86.501 115.498c-2 4.66699 -3.33301 9.33398 -4 14.001s-1 9.33398 -1 14.001c0 21.333 7.66699 40 23 56s33.666 24 54.999 24c20 0 38 -7 54 -21c56.667 26.667 111 40 163 40
c76 0 139.333 -22.333 190 -67s76 -74 76 -88c0 -2.66699 -0.5 -5.5 -1.5 -8.5s-3.16699 -5.16699 -6.5 -6.5l-569 -392c-5.33301 -4 -9.33301 -6.5 -12 -7.5s-5 -1.5 -7 -1.5c-12.667 0 -28.5 22 -47.5 66s-28.5 88 -28.5 132c0 46 9.83301 89.5 29.5 130.5zM1567 1632
c-5.33301 3.33301 -8 8.33496 -8 15.002c0 16 25.667 45.833 77 89.5s114 65.5 188 65.5c52.667 0 107.334 -13.333 164.001 -40c16 14 33.667 21 53 21c21.333 0 39.666 -8 54.999 -24s23 -34.667 23 -56c0 -4.66699 -0.333008 -9.33398 -1 -14.001s-2 -9.33398 -4 -14.001
c38 -36.667 66.833 -75.5 86.5 -116.5s29.5 -84.5 29.5 -130.5c0 -44 -9.5 -87.833 -28.5 -131.5s-34.833 -65.5 -47.5 -65.5c-4 0 -7.66699 1.33301 -11 4z" />
    <glyph glyph-name="uni23F3" unicode="&#x23f3;" 
d="M1993 -49c28.667 -6.66699 52.165 -21.1689 70.498 -43.502s27.5 -48.5 27.5 -78.5c0 -34.667 -12 -64 -36 -88s-53.333 -36 -88 -36h-1334c-34.667 0 -64.167 12.333 -88.5 37s-36.5 53.667 -36.5 87c0 30 9 55.833 27 77.5s41 35.834 69 42.501
c4.66699 191.333 37.5 342.833 98.5 454.5s141.333 192.667 241 243s153.834 84.666 162.501 102.999s13 34.166 13 47.499c0 46.667 -35.5 85.167 -106.5 115.5s-137.5 73.5 -199.5 129.5s-111.833 135.167 -149.5 237.5s-57.834 228.5 -60.501 378.5
c-27.333 6.66699 -50 20.834 -68 42.501s-27 47.5 -27 77.5c0 33.333 12.167 62.333 36.5 87s53.833 37 88.5 37h1334c34.667 0 64 -12 88 -36s36 -53.333 36 -88c0 -29.333 -9.16699 -55.333 -27.5 -78s-41.833 -36.667 -70.5 -42
c-2.66699 -194 -34.167 -347.667 -94.5 -461s-141.5 -196 -243.5 -248s-157.167 -87.333 -165.5 -106s-12.5 -34 -12.5 -46c0 -45.333 35.833 -83.5 107.5 -114.5s137.834 -74.167 198.501 -129.5s109.834 -132.666 147.501 -231.999s58.5 -222.666 62.5 -369.999z
M681.998 -47.002l1233 0.000976562c-2.66699 118 -17 219.167 -43 303.5s-62.667 153.5 -110 207.5s-119.666 104.167 -216.999 150.5s-146 107.166 -146 182.499c0 80.667 57 146.5 171 197.5s199 127.333 255 229s86 243.5 90 425.5h-1233
c2.66699 -180 31.167 -320.5 85.5 -421.5s127.833 -173 220.5 -216s150.667 -79.333 174 -109s35 -64.834 35 -105.501c0 -79.333 -58 -144.833 -174 -196.5s-200.833 -129.167 -254.5 -232.5s-82.5 -241.666 -86.5 -414.999zM1803 244.999
c10.667 -30.667 19.332 -65.166 25.999 -103.499s11.667 -81.5 15 -129.5h-1090c2.66699 48 7.5 91.167 14.5 129.5s15.833 72.833 26.5 103.5h471v552c0 45.333 -12.667 88.166 -38 128.499s-69.333 76.5 -132 108.5l-53 27c-18 9.33301 -36.5 19.833 -55.5 31.5
s-38.167 25.5 -57.5 41.5h736c-31.333 -26 -95.166 -64.833 -191.499 -116.5s-144.5 -125.167 -144.5 -220.5v-552h473z" />
    <glyph glyph-name="uni24C2" unicode="&#x24c2;" 
d="M2200 217.5c-94 -161 -221.17 -287.497 -381.503 -379.497s-333.166 -138 -518.499 -138c-189.333 0 -364.833 47.667 -526.5 143s-288 223.166 -379 383.499s-136.5 332.166 -136.5 515.499c0 181.333 44.833 352 134.5 512s215.834 288.167 378.501 384.5
s339 144.5 529 144.5c186.667 0 360.334 -46.5 521.001 -139.5s287.5 -219.833 380.5 -380.5s139.5 -334.334 139.5 -521.001c0 -188.667 -47 -363.5 -141 -524.5zM2114.5 1212.5c-84.333 145 -199 259.667 -344 344s-301.833 126.5 -470.5 126.5s-325.5 -42 -470.5 -126
s-259.833 -198.667 -344.5 -344s-127 -302.333 -127 -471c0 -169.333 42.167 -326.5 126.5 -471.5s199 -259.667 344 -344s302.167 -126.5 471.5 -126.5c168.667 0 325.667 42.333 471 127s260 199.5 344 344.5s126 301.833 126 470.5s-42.167 325.5 -126.5 470.5z
M1799 1353c8.66699 0 15.002 -2.66699 19.002 -8s6.33301 -10.666 7 -15.999l93 -1109c0 -6 -2.5 -11.5 -7.5 -16.5s-11.167 -7.5 -18.5 -7.5h-230c-7.33301 0 -13.333 2.33301 -18 7s-7.33398 10 -8.00098 16l-47 471l-178 -477c-2 -4.66699 -5.33301 -8.66699 -10 -12
s-9.66699 -5 -15 -5h-172c-7.33301 0 -13 1.66699 -17 5s-6.66699 7.33301 -8 12l-179 477l-45 -471c-1.33301 -6 -4.5 -11.333 -9.5 -16s-10.5 -7 -16.5 -7h-232c-7.33301 0 -13.5 2.5 -18.5 7.5s-7.5 11.833 -7.5 20.5l93 1105c0 6 2.33301 11.5 7 16.5s11 7.5 19 7.5h247
c14 0 22 -6 24 -18l229 -742l228 742c1.33301 5.33301 4.16602 9.66602 8.49902 12.999s9.5 5 15.5 5h247z" />
    <glyph glyph-name="H18543" unicode="&#x25aa;" 
d="M1557 501h-513v516h513v-516z" />
    <glyph glyph-name="H18551" unicode="&#x25ab;" 
d="M1556 1015v-513h-513v513h513zM1459 917h-318v-318h318v318z" />
    <glyph glyph-name="uni25B6" unicode="&#x25b6;" 
d="M2073 731l-1547 -893v1785z" />
    <glyph glyph-name="uni25C0" unicode="&#x25c0;" 
d="M2073 1624v-1785l-1547 893z" />
    <glyph glyph-name="lozenge" unicode="&#x25ca;" 
d="M1970 739l-619 -1010h-104l-617 1007l617 1014h104zM1718 739l-418 701l-418 -701l418 -704z" />
    <glyph glyph-name="uni25FB" unicode="&#x25fb;" 
d="M2065 1531v-1531h-1531v1531h1531zM1947 1413h-1295v-1295h1295v1295z" />
    <glyph glyph-name="uni25FC" unicode="&#x25fc;" 
d="M2065 0h-1531v1531h1531v-1531z" />
    <glyph glyph-name="uni25FD" unicode="&#x25fd;" 
d="M1741 1192v-883h-882v883h882zM1623 1075h-646v-649h646v649z" />
    <glyph glyph-name="uni25FE" unicode="&#x25fe;" 
d="M1741 310h-882v882h882v-882z" />
    <glyph glyph-name="uni2600" unicode="&#x2600;" 
d="M1642 409.5c-95.333 -94.333 -209.333 -141.5 -342 -141.5c-134 0 -248.333 47.333 -343 142s-142 209 -142 343s47.333 248.333 142 343s209 142 343 142c132.667 0 246.667 -47.167 342 -141.5s143 -208.833 143 -343.5s-47.667 -249.167 -143 -343.5zM1195 1326
c-8.66699 0 -15.667 3.16699 -21 9.5s-8 13.166 -8 20.499c0 4.66699 0.333008 7.66699 1 9l106 284c4.66699 12.667 13.667 19 27 19s22.333 -6.33301 27 -19l105 -284l1 -9c0 -7.33301 -2.66699 -14.166 -8 -20.499s-12.333 -9.5 -21 -9.5h-209zM1632 1232
c-6 4.66699 -8.99902 11.667 -8.99902 21c0 11.333 5.66699 20 17 26l274 127c2.66699 1.33301 6.66699 2 12 2c7.33301 0 14 -2.66699 20 -8s9 -12.333 9 -21c0 -2 -0.333008 -4 -1 -6l-2 -6l-126 -274c-4.66699 -9.33301 -11.334 -15 -20.001 -17c-12 0 -21.333 3 -28 9z
M2196 780c12.667 -4.66699 19.002 -13.666 19.002 -26.999s-6.33301 -22.333 -19 -27l-284 -106l-9 -1c-8.66699 0 -15.834 2.66699 -21.501 8s-8.5 12.666 -8.5 21.999v208c0 7.33301 2.66699 14 8 20s11.666 9 18.999 9c5.33301 0 9.33301 -0.333008 12 -1zM1952 139.001
l2 -6.00098c0 -2.66699 0.333008 -5 1 -7c0 -8 -2.66699 -14.833 -8 -20.5s-12.333 -8.5 -21 -8.5c-4 0 -8 1 -12 3l-274 126c-11.333 4.66699 -17 13.334 -17 26.001c0 8.66699 3 15.667 9 21l146 148c6 6 13.333 9 22 9c11.333 0 20 -5.66699 26 -17zM1404 180
c7.33301 0 14 -3.16699 20 -9.5s9 -13.166 9 -20.499c0 -4.66699 -0.333008 -8.33398 -1 -11.001l-105 -282c-2 -6 -5.5 -10.667 -10.5 -14s-10.5 -5 -16.5 -5s-11.5 1.66699 -16.5 5s-8.5 8 -10.5 14l-106 282c0 2 -0.333008 5.33301 -1 10c0 8 2.66699 15 8 21
s12.333 9.33301 21 10h209zM968.003 273c6 -5.33301 8.99902 -12.333 8.99902 -21c0 -5.33301 -1.83301 -10.5 -5.5 -15.5s-7.83398 -8.5 -12.501 -10.5l-273 -126c-4 -2 -8 -3 -12 -3c-9.33301 0 -16.666 2.66699 -21.999 8s-8 12.333 -8 21l1 7c0 2 0.666992 4 2 6
l126 274c4.66699 11.333 13.334 17 26.001 17c8.66699 0 15.667 -3 21 -9zM686.002 620l-282 106c-6 2 -10.667 5.5 -14 10.5s-5 10.5 -5 16.5s1.66699 11.5 5 16.5s8 8.5 14 10.5l288 107h5c8.66699 0 15.667 -3.16699 21 -9.5s8 -13.166 8 -20.499v-208
c0 -8.66699 -2.66699 -15.834 -8 -21.501s-12.333 -8.5 -21 -8.5zM647.002 1367c-2 2.66699 -3 6.66699 -3 12c0 9.33301 3.16699 16.5 9.5 21.5s13.166 7.5 20.499 7.5c5.33301 0 9.33301 -0.666992 12 -2l273 -127c4.66699 -2 8.83398 -5.33301 12.501 -10
s5.5 -10 5.5 -16c0 -9.33301 -3 -16.333 -9 -21l-148 -147c-5.33301 -6 -12 -9 -20 -9c-12.667 0 -21.667 5.66699 -27 17z" />
    <glyph glyph-name="uni2601" unicode="&#x2601;" 
d="M2048 958c78 0 145 -27.998 201 -83.998s84 -123 84 -201c0 -77.333 -28 -144 -84 -200s-123 -84 -201 -84c-15.333 0 -30.333 1 -45 3s-29 5.66699 -43 11c-23.333 -80.667 -68 -146 -134 -196s-140 -75 -222 -75c-42 0 -82 6.66699 -120 20s-72.333 31.666 -103 54.999
c-40.667 -33.333 -86.167 -59.333 -136.5 -78s-103.833 -28 -160.5 -28c-92 0 -176.333 24.5 -253 73.5s-134 114.167 -172 195.5c-7.33301 0 -17.333 -0.333008 -30 -1c-103.333 0 -189.5 34.5 -258.5 103.5s-103.5 151.833 -103.5 248.5c0 93.333 32.667 174 98 242
s144 104 236 108c8 80 42.667 149 104 207s134 87 218 87c27.333 0 53.333 -3.33301 78 -10s48 -15.667 70 -27c34.667 43.333 77 77.666 127 102.999s105 38 165 38c76.667 0 146.667 -21.667 210 -65s109 -99 137 -167c15.333 2.66699 33.333 4 54 4
c77.333 0 144 -27.833 200 -83.5s84 -122.167 84 -199.5zM2164.5 791.502c-33.667 32.333 -72.498 48.498 -116.498 48.498c-32.667 0 -60.5 11.667 -83.5 35s-34.5 51 -34.5 83c0 45.333 -16.333 84.166 -49 116.499s-71.667 48.5 -117 48.5
c-8.66699 0 -17.667 -0.666992 -27 -2s-18.333 -2 -27 -2c-51.333 0 -88.5 25.333 -111.5 76s-55.833 89.334 -98.5 116.001s-88.334 40 -137.001 40c-38.667 0 -75.334 -8.33301 -110.001 -25s-64.5 -40.167 -89.5 -70.5s-55.833 -45.5 -92.5 -45.5
c-18 0 -40 6.16699 -66 18.5s-53.333 18.5 -82 18.5c-48 0 -91.667 -15.833 -131 -47.5s-64 -78.667 -74 -141s-44 -96.5 -102 -102.5s-104.167 -22.167 -138.5 -48.5s-59.5 -59.166 -75.5 -98.499c-11.333 -28 -17 -57.333 -17 -88c0 -64.667 22.833 -120 68.5 -166
s102.834 -69 171.501 -69c8.66699 0 15.334 0.666992 20.001 2c61.333 0 103.5 -25.667 126.5 -77s63.5 -96.166 121.5 -134.499s121.667 -57.5 191 -57.5c43.333 0 83.833 7.33301 121.5 22s69.167 32.334 94.5 53.001s52.333 31 81 31c27.333 0 58.5 -12.667 93.5 -38
s78.167 -38 129.5 -38s99.666 15.667 144.999 47s78 76.666 98 135.999s57.667 89 113 89c14.667 0 29.167 -2.33301 43.5 -7s29.166 -7 44.499 -7c44.667 0 83.667 16 117 48s50 71.333 50 118s-16.833 86.167 -50.5 118.5z" />
    <glyph glyph-name="uni260E" unicode="&#x260e;" 
d="M2052 407c10.667 -30 17.3359 -60.3311 20.002 -90.998c2.66699 -30.667 4 -61.334 4 -92.001c0 -26.667 -0.5 -53.167 -1.5 -79.5s-1.5 -52.833 -1.5 -79.5c0 -48.667 -12.333 -82.667 -37 -102s-65.334 -29 -122.001 -29h-1235c-56.667 0 -97.667 9.66699 -123 29
s-38 53.333 -38 102c0 26.667 -0.5 53.167 -1.5 79.5s-1.5 52.5 -1.5 78.5c0 80.667 10.167 148.167 30.5 202.5s66.833 203.166 139.5 446.499c84.667 22.667 152.167 55.834 202.5 99.501s75.5 92.834 75.5 147.501c0 19.333 -1.83301 37.666 -5.5 54.999
s-8.16699 34.333 -13.5 51c42.667 22 93.667 38.5 153 49.5s124.666 16.5 195.999 16.5c84.667 0 157.167 -5.83301 217.5 -17.5s108.5 -27.834 144.5 -48.501c-5.33301 -16.667 -9.83301 -33.667 -13.5 -51s-5.5 -35.666 -5.5 -54.999c0 -53.333 24.333 -101.833 73 -145.5
s114.667 -76.834 198 -99.501l72 -234zM1245 864.002c8 -6.66699 23.666 -10.001 46.999 -10.001c30.667 0 50.834 2.83301 60.501 8.5s14.5 18.834 14.5 39.501c0 17.333 -5 29.5 -15 36.5s-25.667 10.5 -47 10.5c-34 0 -54.5 -3.5 -61.5 -10.5s-10.5 -17.833 -10.5 -32.5
c0 -21.333 4 -35.333 12 -42zM1243.5 711.501c8.33301 -8.33301 31.166 -12.501 68.499 -12.501c22 0 37.167 3.66699 45.5 11s12.5 21 12.5 41c0 18 -5.16699 31.167 -15.5 39.5s-27.166 12.5 -50.499 12.5c-34.667 0 -55.5 -3.66699 -62.5 -11s-10.5 -18.333 -10.5 -33
c0 -23.333 4.16699 -39.166 12.5 -47.499zM1240.5 544c9 -8.66699 30.501 -13 64.501 -13c26.667 0 44.667 3.66699 54 11s14 22 14 44c0 18.667 -5.33301 33.167 -16 43.5s-36.334 15.5 -77.001 15.5c-17.333 0 -30.5 -4.16699 -39.5 -12.5s-13.5 -21.833 -13.5 -40.5
c0 -23.333 4.5 -39.333 13.5 -48zM1074 466.5c-28.667 3 -44.667 4.83301 -48 5.5c-22 0 -38 -5.5 -48 -16.5s-15 -30.833 -15 -59.5c0 -17.333 4 -29.833 12 -37.5s22 -11.5 42 -11.5c40 0 66.667 4.16699 80 12.5s20 28.5 20 60.5c0 28 -14.333 43.5 -43 46.5zM1108.5 633
c-11 8 -32.833 12.002 -65.5 12.002c-20 0 -35.833 -4.33301 -47.5 -13s-17.5 -26.334 -17.5 -53.001c0 -20.667 5.16699 -33.834 15.5 -39.501s29.5 -8.5 57.5 -8.5c34 0 54.833 6.33301 62.5 19s11.5 29 11.5 49c0 14.667 -5.5 26 -16.5 34zM1131 747.002
c0 4 0.333984 8.66797 1.00098 14.001c0 17.333 -6.33301 28.666 -19 33.999s-27.667 8 -45 8c-30 0 -50.333 -4 -61 -12s-16 -24 -16 -48c0 -20.667 6.16699 -33.167 18.5 -37.5s32.166 -6.5 59.499 -6.5c20.667 0 35.5 3.16699 44.5 9.5s14.167 14.833 15.5 25.5z
M1121.5 941.003c-11 5.33301 -25.166 8.00098 -42.499 8.00098c-26 0 -45 -2.83301 -57 -8.5s-18 -19.167 -18 -40.5c0 -16.667 3.16699 -28.5 9.5 -35.5s19.166 -10.5 38.499 -10.5c39.333 0 63.5 4 72.5 12s13.5 22.667 13.5 44c0 15.333 -5.5 25.666 -16.5 30.999z
M1377 400.004l-0.000976562 12.998c0 33.333 -14.667 51.333 -44 54s-45.666 4.33398 -48.999 5.00098c-20.667 0 -35.667 -4.66699 -45 -14s-14 -22.666 -14 -39.999c0 -27.333 3.83301 -46 11.5 -56s23.167 -15 46.5 -15c44 0 70.667 4.5 80 13.5s14 22.167 14 39.5z
M1465 889.002c1.33301 -13.333 7.16602 -22.5 17.499 -27.5s24.5 -7.5 42.5 -7.5c28.667 0 47.834 2.66699 57.501 8s14.5 17 14.5 35c0 17.333 -4.83301 30.333 -14.5 39s-26.834 13 -51.501 13c-23.333 0 -40.666 -2 -51.999 -6s-17 -13.667 -17 -29
c0 -5.33301 0.333008 -10 1 -14zM1482 714.002c8.66699 -10 32.666 -14.999 71.999 -14.999c20.667 0 35 3.16699 43 9.5s12 18.5 12 36.5s-4.66699 32.167 -14 42.5s-27.666 15.5 -54.999 15.5c-28.667 0 -47.667 -2.33301 -57 -7s-14 -15.334 -14 -32.001
c0 -23.333 4.33301 -40 13 -50zM1490 546.503c8.66699 -10.333 31.333 -15.501 68 -15.501c24 0 41 3 51 9s15 19.333 15 40c0 24.667 -5.66699 41.667 -17 51s-38 14 -80 14c-8.66699 0 -19.167 -2.5 -31.5 -7.5s-18.5 -16.5 -18.5 -34.5
c0 -27.333 4.33301 -46.166 13 -56.499zM1541 472.002c-17.333 0 -31.001 -3.83203 -41.001 -11.499s-15 -19.5 -15 -35.5c0 -28.667 4.5 -48.834 13.5 -60.501s25.833 -17.5 50.5 -17.5c32.667 0 55.834 2.5 69.501 7.5s20.5 16.167 20.5 33.5c0 34.667 -5.5 57 -16.5 67
s-25.5 15 -43.5 15c-14 0 -26.667 0.666992 -38 2zM2294 1150l-0.000976562 -18c0 -64.667 -20.167 -114.5 -60.5 -149.5s-96.5 -52.5 -168.5 -52.5s-148.5 17.833 -229.5 53.5s-121.5 81.167 -121.5 136.5c0 18 3.5 36.333 10.5 55s10.5 36.667 10.5 54
c0 46 -43.667 81 -131 105s-191.666 36 -312.999 36c-102 0 -198.667 -12.333 -290 -37s-137 -59 -137 -103c0 -17.333 3.33301 -35.5 10 -54.5s10 -37.5 10 -55.5c0 -51.333 -38.167 -95.833 -114.5 -133.5s-154.833 -56.5 -235.5 -56.5c-72 0 -128.167 17.667 -168.5 53
s-60.5 85 -60.5 149c0 170 95 306.833 285 410.5s426.333 155.5 709 155.5c272.667 0 502 -47.833 688 -143.5s287.667 -224.5 305 -386.5z" />
    <glyph glyph-name="uni2611" unicode="&#x2611;" 
d="M2290 1821c13.333 0 24.833 -4.83301 34.5 -14.5s14.5 -21.167 14.5 -34.5v-1980c0 -13.333 -4.83301 -24.833 -14.5 -34.5s-21.167 -14.5 -34.5 -14.5h-1980c-13.333 0 -24.833 4.83301 -34.5 14.5s-14.5 21.167 -14.5 34.5v1980c0 13.333 4.83301 24.833 14.5 34.5
s21.167 14.5 34.5 14.5h1980zM2218 1701h-1837v-1837h1837v1837zM1057 153l-610 607l153 152l457 -453l943 952l153 -152z" />
    <glyph glyph-name="uni2614" unicode="&#x2614;" 
d="M1401 1362c156 -12.667 300.324 -52.5 432.991 -119.5s237.167 -154.333 313.501 -262c76.333 -107.667 114.5 -222.834 114.5 -345.501c0 -34 -2.16699 -58.667 -6.5 -74s-16.166 -23 -35.5 -23c-14.667 0 -28.334 8.83301 -41.001 26.5s-41.167 39.334 -85.5 65.001
s-95.166 38.5 -152.499 38.5c-47.333 0 -91 -9.16699 -131 -27.5s-73 -41 -99 -68s-43.167 -49.5 -51.5 -67.5s-21.166 -27 -38.499 -27c-18.667 0 -32.667 10.167 -42 30.5s-29.666 45.333 -60.999 75s-69.666 51.834 -114.999 66.501v-584
c0 -94.667 -34.167 -176.167 -102.5 -244.5s-150.166 -102.5 -245.499 -102.5c-62.667 0 -121 16 -175 48s-95 72.667 -123 122s-42 88.333 -42 117c0 26 9.33301 48.833 28 68.5s42.334 29.5 71.001 29.5c20.667 0 40.167 -6.5 58.5 -19.5s31.166 -33.5 38.499 -61.5
s24.5 -53 51.5 -75s57.833 -33 92.5 -33c41.333 0 76.833 14.833 106.5 44.5s44.5 65.167 44.5 106.5v587c-49.333 -14.667 -90.666 -37.834 -123.999 -69.501s-54.166 -57 -62.499 -76s-21.833 -28.5 -40.5 -28.5c-18 0 -30.833 8.83301 -38.5 26.5s-24.667 40 -51 67
s-59.833 49.667 -100.5 68s-84 27.5 -130 27.5c-55.333 0 -104.833 -12.167 -148.5 -36.5s-72.5 -46 -86.5 -65s-28.667 -28.5 -44 -28.5s-26.166 8.66699 -32.499 26s-9.5 41 -9.5 71c0 122.667 38.333 237.667 115 345s181.834 195 315.501 263s280.167 107.667 439.5 119
l15 211c1.33301 20.667 9.83301 37.834 25.5 51.501s35.167 20.5 58.5 20.5c20.667 0 38.5 -6.83301 53.5 -20.5s23.167 -30.834 24.5 -51.501zM1670.49 1156c-9.66699 -12.667 -26.833 -47.668 -51.5 -105.001s-37 -106.666 -37 -147.999c0 -32 11.5 -59.5 34.5 -82.5
s50.5 -34.5 82.5 -34.5s59.5 11.5 82.5 34.5s34.5 50.5 34.5 82.5c0 38.667 -14.5 93.667 -43.5 165s-53.5 107 -73.5 107c-9.33301 0 -18.833 -6.33301 -28.5 -19zM1794.49 1717.5c29 70.333 53.501 105.499 73.501 105.499c19.333 0 43.5 -35.833 72.5 -107.5
s43.5 -126.5 43.5 -164.5c0 -32 -11.333 -59.5 -34 -82.5s-50 -34.5 -82 -34.5c-32.667 0 -60.334 11.333 -83.001 34s-34 50.334 -34 83.001c0 40.667 14.5 96.167 43.5 166.5zM614.993 1682c20 50.667 36.498 86.832 49.498 108.499s25.5 32.5 37.5 32.5
c20 0 44.5 -35.667 73.5 -107s43.5 -126.333 43.5 -165c0 -30.667 -11.167 -57.834 -33.5 -81.501s-50.166 -35.5 -83.499 -35.5s-61.166 11.833 -83.499 35.5s-33.5 50.834 -33.5 81.501c0 36.667 10 80.334 30 131.001z" />
    <glyph glyph-name="uni2615" unicode="&#x2615;" 
d="M1848 817c131.333 -14 223.336 -45.332 276.002 -93.999c52.667 -48.667 79 -118 79 -208c0 -47.333 -8.33301 -91.166 -25 -131.499s-40.834 -79.333 -72.501 -117s-69.167 -70.834 -112.5 -99.501s-89 -51.667 -137 -69s-91.833 -28 -131.5 -32s-67 -12.833 -82 -26.5
s-26.5 -23.167 -34.5 -28.5l-49 -31c-66.667 -40 -131.5 -68.167 -194.5 -84.5s-129.167 -24.5 -198.5 -24.5c-130 0 -237.5 18 -322.5 54s-160.5 88.333 -226.5 157s-117.667 142.5 -155 221.5s-56 177.5 -56 295.5c0 88 15.333 160 46 216s81.5 109.667 152.5 161
s150 86.166 237 104.499s191.833 27.5 314.5 27.5c126 0 240 -19.833 342 -59.5s184.333 -91.167 247 -154.5l64 -65c5.33301 -5.33301 11.666 -8.33301 18.999 -9zM2059.5 648.501c-29.667 33.667 -72.6709 56.832 -129.004 69.499s-101.5 19.667 -135.5 21
s-59.833 16.833 -77.5 46.5s-53.5 63.5 -107.5 101.5s-123.5 69.5 -208.5 94.5s-178.5 37.5 -280.5 37.5c-192.667 0 -342.5 -35.167 -449.5 -105.5s-160.5 -178.833 -160.5 -325.5c0 -158 54.333 -300.833 163 -428.5s273.334 -191.5 494.001 -191.5
c58.667 0 126.834 12.333 204.501 37s138.834 53.834 183.501 87.501s69.5 50.5 74.5 50.5s30.333 3 76 9s94.834 20.667 147.501 44s99.5 54.166 140.5 92.499s69.5 76.833 85.5 115.5s24 72 24 100c0 62.667 -14.833 110.834 -44.5 144.501zM1446.5 548.499
c-81.667 -51 -191.5 -76.499 -329.5 -76.499c-72 0 -144.333 8.83301 -217 26.5s-130.5 46.667 -173.5 87s-64.5 84.5 -64.5 132.5c0 72 45.833 131.667 137.5 179s211.5 71 359.5 71c120 0 218.333 -25.333 295 -76s115 -106.334 115 -167.001
c0 -66.667 -40.833 -125.5 -122.5 -176.5zM1901 326.5c-61.333 -57 -130.999 -85.5 -208.999 -85.5c-18 0 -27 3.66699 -27 11c0 6.66699 8.83301 31.834 26.5 75.501s33.334 100 47.001 169s20.5 106.833 20.5 113.5c0 3.33301 0.666992 5.66602 2 6.99902
c1.33301 4 5.66602 6.66699 12.999 8s15.666 2 24.999 2c72.667 0 123.167 -10.833 151.5 -32.5s42.5 -52.5 42.5 -92.5c0 -60 -30.667 -118.5 -92 -175.5zM1878 526c-12.667 10 -25.334 15.001 -38.001 15.001c-3.33301 0 -7.66602 -0.666992 -12.999 -2
c-1.33301 -12.667 -4.33301 -30.334 -9 -53.001l-15 -65c-2.66699 -11.333 -6 -22.5 -10 -33.5s-7.66699 -22.167 -11 -33.5l-2 -5c-1.33301 -2 -2 -4 -2 -6c0 -4 2.66699 -6 8 -6s12.5 3 21.5 9s16.833 11.667 23.5 17l8 7c14.667 12.667 28 29 40 49s18 41.667 18 65
c0 18 -6.33301 32 -19 42zM1560 1624c42 -6.66699 83.999 -9.99902 125.999 -9.99902c66.667 0 124.167 12.667 172.5 38s80.833 60.333 97.5 105s36.334 67 59.001 67c14 0 25.167 -18.667 33.5 -56s12.5 -76 12.5 -116c0 -112.667 -33 -205.167 -99 -277.5
s-157.333 -108.5 -274 -108.5c-34 0 -77.167 3.83301 -129.5 11.5s-95.5 11.5 -129.5 11.5c-74.667 0 -143.334 -9 -206.001 -27s-111 -43 -145 -75l-25 -23c-9.33301 -9.33301 -19.333 -14 -30 -14c-14.667 0 -25 6.16699 -31 18.5s-9 30.166 -9 53.499
c0 80 20.167 153.5 60.5 220.5s98.333 115.667 174 146s147.834 45.5 216.501 45.5c42 0 84 -3.33301 126 -10zM1057 1256c30 30 69.334 58.999 118.001 86.999s119.334 42 212.001 42c34.667 0 83.167 -4.83301 145.5 -14.5s111.833 -14.5 148.5 -14.5
c63.333 0 119 16.333 167 49s83.333 74.334 106 125.001s34 87.667 34 111c0 8 -2 12 -6 12s-12.5 -9.66699 -25.5 -29s-40.333 -39.833 -82 -61.5s-92.167 -32.5 -151.5 -32.5c-46 0 -91.5 3.33301 -136.5 10s-90.5 10 -136.5 10c-84.667 0 -155.834 -13.5 -213.501 -40.5
s-102.334 -68.167 -134.001 -123.5s-47.5 -96.333 -47.5 -123c0 -4.66699 0.666992 -7 2 -7z" />
    <glyph glyph-name="uni261D" unicode="&#x261d;" 
d="M2000.5 580.5c-24.333 -69.667 -59.9971 -131.495 -106.997 -185.495s-96.333 -95 -148 -123s-85.667 -49.833 -102 -65.5s-27 -29 -32 -40s-8.83301 -37.167 -11.5 -78.5c30 0 50.333 -8 61 -24s16 -55.667 16 -119v-34l-1 -12v-14l29 -2
c15.333 -1.33301 30.166 -7 44.499 -17s22.833 -25.833 25.5 -47.5s4 -40.834 4 -57.501l-1 -28v-43c0 -15.333 -0.333008 -31.666 -1 -48.999l-999 2l4 128c0 15.333 1 29 3 41l2 26c2.66699 40.667 7.5 66 14.5 76s23.833 16 50.5 18h13
c2.66699 25.333 6.5 51.166 11.5 77.499s10.5 51.166 16.5 74.499s21.333 35 46 35h8l21 -3c-13.333 54.667 -38.666 93.167 -75.999 115.5s-72.833 54.666 -106.5 96.999s-63.834 105.333 -90.501 189s-47 142.834 -61 177.501l-36 84
c-10.667 24.667 -19.167 48.5 -25.5 71.5s-9.5 48.167 -9.5 75.5c0 59.333 21.333 111.166 64 155.499s93 66.5 151 66.5l19 -1c5.33301 0 11 1 17 3s16.167 20.333 30.5 55s38 61 71 79s65.5 27 97.5 27c9.33301 0 17.833 -1 25.5 -3s14.5 -3 20.5 -3
c12.667 0 25 9.33301 37 28s35 38.834 69 60.501s71.667 32.5 113 32.5c14 0 27.167 -0.833008 39.5 -2.5s23.833 -4.16699 34.5 -7.5l2 132l1 254c3.33301 66 26.666 122.833 69.999 170.5s97.666 71.5 162.999 71.5c77.333 0 140.5 -23.667 189.5 -71
s73.5 -106.333 73.5 -177c0 -6.66699 -0.666992 -24.334 -2 -53.001l-5 -106l-7 -134c-2.66699 -48 -5 -94.333 -7 -139l-9 -202c0 -14.667 10.333 -32.334 31 -53.001c53.333 -20 97.5 -53.5 132.5 -100.5s52.5 -118.5 52.5 -214.5
c0 -72.667 -12.167 -143.834 -36.5 -213.501zM1475 1222l12 -38.998l11 -43c24.667 4 51 6 79 6c16.667 0 31 -0.333008 43 -1s23 -1.33398 33 -2.00098l54 -7l1 41c0 21.333 1.33301 47.666 4 78.999l5 103l10 228c0 20 1.16699 50 3.5 90s3.83301 67.667 4.5 83l1 34
c0 42 -13.5 75.167 -40.5 99.5s-60.5 36.5 -100.5 36.5c-33.333 0 -60.333 -12.5 -81 -37.5s-32 -55.833 -34 -92.5zM1166.5 1192.51c1.66699 -8.33301 5.5 -22.501 11.5 -42.501l14 -54c17.333 -66 35.833 -128 55.5 -186s52.167 -87 97.5 -87
c14.667 0 26.834 2.83301 36.501 8.5s17.5 12.167 23.5 19.5c-21.333 15.333 -36.333 35 -45 59s-13 51.667 -13 83c0 28 5 51 15 69s24 32.667 42 44c-1.33301 5.33301 -8.83301 41.333 -22.5 108s-52.167 100 -115.5 100c-32.667 0 -57.834 -9.16699 -75.501 -27.5
s-26.5 -41.166 -26.5 -68.499c0 -8.66699 0.833008 -17.167 2.5 -25.5zM890.503 1055.51c1.66699 -7 5.83301 -19.5 12.5 -37.5l19 -47c6.66699 -17.333 14.167 -35.5 22.5 -54.5s16.833 -37.167 25.5 -54.5l23 -47c15.333 -32 30.833 -52.5 46.5 -61.5
s32.167 -13.5 49.5 -13.5c22 0 42.833 7.5 62.5 22.5s29.5 33.833 29.5 56.5c0 8.66699 -1.33301 17.334 -4 26.001l-35 119l-47 148c-17.333 53.333 -51.333 80 -102 80c-34 0 -60 -9.83301 -78 -29.5s-27 -45.834 -27 -78.501c0 -12 0.833008 -21.5 2.5 -28.5z
M905.002 661.006c21.333 14.667 31.9961 33.667 31.9961 57c0 8.66699 -2 18 -6 28l-84 210c-9.33301 22.667 -22.166 38.834 -38.499 48.501s-33.166 14.5 -50.499 14.5c-31.333 0 -55.166 -9.33301 -71.499 -28s-24.5 -43.334 -24.5 -74.001s13.833 -72.5 41.5 -125.5
s49.334 -91.667 65.001 -116s37.834 -36.5 66.501 -36.5c25.333 0 48.666 7.33301 69.999 22zM1588 -94.9941c0 38 -1.50098 60.999 -4.50098 68.999s-10.833 12 -23.5 12c-32 0 -69.667 0.666992 -113 2s-86 3 -128 5l-237 11c-31.333 1.33301 -51.666 2.33301 -60.999 3
l-16 1c-13.333 0 -21.833 -6.16699 -25.5 -18.5s-6.5 -22.833 -8.5 -31.5l-7 -29c-2 -9.33301 -3.33301 -16.333 -4 -21l42 -5c59.333 -7.33301 162.5 -13.666 309.5 -18.999s226.833 -8 239.5 -8l37 -1v30zM1861.5 983.505c-41.667 34.333 -86.167 52.5049 -133.5 54.5049
c-10 0 -21.667 1 -35 3l-44 5c-16 2 -32.667 3.83301 -50 5.5s-34.333 2.5 -51 2.5c-38.667 0 -68.167 -7.83301 -88.5 -23.5s-30.5 -38.834 -30.5 -69.501c0 -41.333 21.667 -74.833 65 -100.5s85 -38.5 125 -38.5c5.33301 0 9 0.333008 11 1
c-2 -5.33301 -6 -21.833 -12 -49.5s-9 -51.5 -9 -71.5c-46.667 -11.333 -90.167 -25.333 -130.5 -42s-73.166 -37.667 -98.499 -63l-28 -28c-8 -8.66699 -15.5 -15.834 -22.5 -21.501s-14.167 -8.5 -21.5 -8.5c-14.667 0 -22 7.33301 -22 22c0 15.333 8 40.666 24 75.999
s28 59.666 36 72.999l-9 -2c-3.33301 0 -9 -0.333008 -17 -1c-14.667 0 -27.667 1.66699 -39 5s-21 7 -29 11c-4.66699 -5.33301 -17.834 -21.333 -39.501 -48s-56.167 -40 -103.5 -40c-18 0 -34.833 1.5 -50.5 4.5s-26.167 6.16699 -31.5 9.5
c-4.66699 -28 -20.167 -53.333 -46.5 -76s-68.166 -34 -125.499 -34c-7.33301 0 -12.333 0.333008 -15 1c5.33301 -54.667 18.666 -97.5 39.999 -128.5s51.5 -61 90.5 -90s66 -60.667 81 -95s24.5 -75.833 28.5 -124.5c40.667 -4.66699 105 -9.16699 193 -13.5
s162.667 -6.5 224 -6.5l5 52c4.66699 53.333 24.834 97 60.501 131s82.667 68.667 141 104s109.666 90.666 153.999 165.999s66.5 160.333 66.5 255s-20.833 159.167 -62.5 193.5z" />
    <glyph glyph-name="smileface" unicode="&#x263a;" 
d="M2108.5 263c-83.667 -144.667 -197.834 -258.834 -342.501 -342.501s-300 -125.5 -466 -125.5s-321.333 41.833 -466 125.5s-258.834 197.834 -342.501 342.501s-125.5 300 -125.5 466s41.833 321.333 125.5 466s197.834 258.834 342.501 342.501s300 125.5 466 125.5
s321.333 -41.833 466 -125.5s258.834 -197.834 342.501 -342.501s125.5 -300 125.5 -466s-41.833 -321.333 -125.5 -466zM2007 1136c-73.333 126.667 -173.333 226.667 -300 300s-262.334 110 -407.001 110c-142 0 -276 -35.5 -402 -106.5s-226.667 -170 -302 -297
s-113 -264.833 -113 -413.5c0 -146.667 36.667 -282.834 110 -408.501s172.833 -225.167 298.5 -298.5s261.834 -110 408.501 -110c148.667 0 286.5 37.667 413.5 113s226 176 297 302s106.5 260 106.5 402c0 144.667 -36.667 280.334 -110 407.001zM876.5 1027
c27 33.333 59.833 50 98.5 50s71.667 -16.5 99 -49.5s41 -72.167 41 -117.5c0 -46 -13.833 -85.167 -41.5 -117.5s-60.5 -48.5 -98.5 -48.5s-70.667 16.167 -98 48.5s-41 71.5 -41 117.5c0 44.667 13.5 83.667 40.5 117zM1524.5 1027c27 33.333 59.833 50 98.5 50
s71.667 -16.5 99 -49.5s41 -72.167 41 -117.5c0 -46 -13.833 -85.167 -41.5 -117.5s-60.5 -48.5 -98.5 -48.5s-70.667 16.167 -98 48.5s-41 71.5 -41 117.5c0 44.667 13.5 83.667 40.5 117zM1736 387c-64 -71.333 -135.328 -120.334 -213.995 -147.001
s-152.667 -40 -222 -40c-70.667 0 -144.834 13.333 -222.501 40s-148.834 75.334 -213.501 146.001s-97 132 -97 184c0 13.333 4.16699 24.666 12.5 33.999s20.166 14 35.499 14c22.667 0 54.667 -22.5 96 -67.5s95.666 -83.333 162.999 -115s142.666 -47.5 225.999 -47.5
c80 0 153.667 15 221 45s122.333 68.333 165 115s75.334 70 98.001 70c13.333 0 24.666 -4.16699 33.999 -12.5s14 -20.166 14 -35.499c0 -50.667 -32 -111.667 -96 -183z" />
    <glyph glyph-name="uni2648" unicode="&#x2648;" 
d="M2246 960.5c-16.667 -59.667 -40.666 -108.833 -71.999 -147.5l-212 174c6.66699 8 14.167 25.667 22.5 53s12.5 54.333 12.5 81c0 76 -27.833 140.667 -83.5 194s-120.834 80 -195.501 80c-76.667 0 -142.5 -27.167 -197.5 -81.5s-82.5 -119.833 -82.5 -196.5v-1292
h-275v1292c0 76 -27.333 141.333 -82 196s-120 82 -196 82c-76.667 0 -142.5 -26.833 -197.5 -80.5s-82.5 -118.167 -82.5 -193.5c0 -28.667 4 -55.834 12 -81.501s16 -43.167 24 -52.5l-214 -174c-31.333 38.667 -55.333 86.834 -72 144.501s-25 110.834 -25 159.501
c0 152 54.5 282.167 163.5 390.5s239.5 162.5 391.5 162.5c83.333 0 160.5 -17 231.5 -51s132.5 -80 184.5 -138c51.333 58 112.833 104 184.5 138s149.167 51 232.5 51c157.333 0 288.833 -52 394.5 -156s158.5 -236.333 158.5 -397
c0 -44.667 -8.33301 -96.834 -25 -156.501z" />
    <glyph glyph-name="uni2649" unicode="&#x2649;" 
d="M1739 1067c90.667 -67.333 162.666 -152.666 215.999 -255.999s80 -214 80 -332c0 -132 -34 -255.5 -102 -370.5s-158.833 -204.333 -272.5 -268s-233.834 -95.5 -360.501 -95.5c-127.333 0 -247.666 31.667 -360.999 95s-204.166 152.5 -272.499 267.5
s-102.5 238.833 -102.5 371.5c0 118 26.667 228.667 80 332s125.333 188.666 216 255.999c-90.667 68 -162.667 153.667 -216 257s-80 213.666 -80 330.999h296c0 -122 43.333 -225.833 130 -311.5s190 -128.5 310 -128.5s223.333 42.833 310 128.5s130 189.5 130 311.5h295
c0 -117.333 -26.667 -227.666 -80 -330.999s-125.333 -189 -216 -257zM1609.5 791c-87 86.667 -190.167 130 -309.5 130s-222.5 -43.333 -309.5 -130s-130.5 -190.667 -130.5 -312c0 -120.667 43.333 -224 130 -310s190 -129 310 -129s223.333 43 310 129
s130 189.333 130 310c0 121.333 -43.5 225.333 -130.5 312z" />
    <glyph glyph-name="uni264A" unicode="&#x264a;" 
d="M2119 1351c-37.333 -9.33301 -80.668 -18.833 -130.001 -28.5s-104 -19.167 -164 -28.5v-1112c60 -9.33301 114.667 -18.666 164 -27.999s92.666 -18.666 129.999 -27.999v-304c-105.333 28.667 -231.666 53.167 -378.999 73.5s-294 30.5 -440 30.5
s-292.833 -10.167 -440.5 -30.5s-274.167 -44.833 -379.5 -73.5v304c38 9.33301 81.5 18.666 130.5 27.999s103.5 18.666 163.5 27.999v1112c-60 9.33301 -114.5 18.833 -163.5 28.5s-92.5 19.167 -130.5 28.5v302c132.667 -33.333 269.5 -58.666 410.5 -75.999
s277.5 -26 409.5 -26s268.333 8.66699 409 26s277.334 42.666 410.001 75.999v-302zM1530 1264c-36 -2.66699 -73.333 -4.66699 -112 -6s-78 -2 -118 -2c-40.667 0 -80 0.666992 -118 2s-75.667 3.33301 -113 6v-1052c37.333 3.33301 75 5.5 113 6.5s77.333 1.5 118 1.5
c40 0 79.333 -0.5 118 -1.5s76 -3.16699 112 -6.5v1052z" />
    <glyph glyph-name="uni264B" unicode="&#x264b;" 
d="M884 -54c-139.333 30 -283.333 77.999 -432 143.999l130 264c114.667 -50 233.167 -89 355.5 -117s243.166 -42 362.499 -42c46 0 92 3.33301 138 10s91.333 15.667 136 27c-62 41.333 -111.667 96.166 -149 164.499s-56 141.5 -56 219.5
c0 126.667 45.5 235.334 136.5 326.001s199.167 136 324.5 136c126.667 0 235.334 -45.333 326.001 -136s136 -199.334 136 -326.001c0 -133.333 -43.333 -254.166 -130 -362.499s-208.5 -194.166 -365.5 -257.499s-322.5 -95 -496.5 -95c-138 0 -276.667 15 -416 45z
M1712 498.999c32.667 -33.333 72 -50 118 -50c46.667 0 86.334 16.667 119.001 50s49 72.333 49 117c0 44 -16.333 82.833 -49 116.5s-72.334 50.5 -119.001 50.5s-86.167 -16.833 -118.5 -50.5s-48.5 -72.5 -48.5 -116.5c0 -44.667 16.333 -83.667 49 -117zM443.5 1296.5
c91 109 214 194 369 255s317.5 91.5 487.5 91.5c140.667 0 284.834 -16.667 432.501 -50s286.167 -79.666 415.5 -138.999l-131 -264c-158.667 65.333 -292.667 108.166 -402 128.499s-214.333 30.5 -315 30.5c-46.667 0 -93 -3.33301 -139 -10s-91 -15.667 -135 -27
c63.333 -42.667 113.166 -98 149.499 -166s54.5 -140.667 54.5 -218c0 -126.667 -45.333 -235.334 -136 -326.001s-198.667 -136 -324 -136c-126 0 -234.667 45.333 -326 136s-137 199.334 -137 326.001c0 136.667 45.5 259.5 136.5 368.5zM887 1046.5
c-32.667 32.333 -71.667 48.5 -117 48.5c-46.667 0 -86.167 -16.167 -118.5 -48.5s-48.5 -71.833 -48.5 -118.5c0 -45.333 16.167 -84.5 48.5 -117.5s71.833 -49.5 118.5 -49.5c46 0 85.167 16.5 117.5 49.5s48.5 72.167 48.5 117.5c0 46.667 -16.333 86.167 -49 118.5z" />
    <glyph glyph-name="uni264C" unicode="&#x264c;" 
d="M2229 -233c-75.333 -50 -158.332 -75.001 -248.999 -75.001c-130.667 0 -238.5 48.5 -323.5 145.5s-127.5 220.167 -127.5 369.5c0 82 8.66699 170.833 26 266.5s49.333 204.167 96 325.5s70 232.666 70 333.999c0 102 -29.667 181.167 -89 237.5s-137 84.5 -233 84.5
c-88 0 -163.667 -31.667 -227 -95s-95 -139 -95 -227l1 -29c1.33301 -28.667 8.5 -66.834 21.5 -114.501s34.167 -97 63.5 -148s53.666 -109.167 72.999 -174.5s29 -132.666 29 -201.999c0 -123.333 -43.833 -228.833 -131.5 -316.5s-192.834 -131.5 -315.501 -131.5
c-124 0 -229.667 44.333 -317 133s-131 193.667 -131 315c0 122 44 226.833 132 314.5s192.333 131.5 313 131.5c-10.667 38.667 -18.667 75.334 -24 110.001s-8 64.667 -8 90l-1 24c0 168.667 60.667 313.334 182 434.001s266.333 181 435 181
c180 0 327.667 -57.5 443 -172.5s173 -263.167 173 -444.5c0 -144 -31.833 -296.333 -95.5 -457s-95.5 -315 -95.5 -463c0 -66.667 13.333 -121 40 -163s65.334 -63 116.001 -63c30.667 0 59 8 85 24zM925.501 571.499c-29.667 30.333 -65.5 45.5 -107.5 45.5
c-42.667 0 -78.834 -15.167 -108.501 -45.5s-44.5 -65.833 -44.5 -106.5c0 -42 14.833 -78.167 44.5 -108.5s65.834 -45.5 108.501 -45.5c42 0 77.833 15.167 107.5 45.5s44.5 66.5 44.5 108.5c0 40.667 -14.833 76.167 -44.5 106.5z" />
    <glyph glyph-name="uni264D" unicode="&#x264d;" 
d="M1784 100c24 -15.333 55.8359 -27.668 95.5029 -37.001s88.5 -14 146.5 -14v-294c-97.333 0 -180.333 9.83301 -249 29.5s-122.667 44.167 -162 73.5s-63.666 50.333 -72.999 63l-10 12c-130 -71.333 -277.667 -134.333 -443 -189l-92 279
c85.333 28.667 162.5 58.167 231.5 88.5s132.167 61.833 189.5 94.5c-5.33301 34 -8.33301 67.833 -9 101.5s-1 64.834 -1 93.501v955c0 30.667 -10.833 56.5 -32.5 77.5s-46.834 31.5 -75.501 31.5c-30 0 -55.833 -10.5 -77.5 -31.5s-32.5 -46.833 -32.5 -77.5v-855h-294
v855c0 30.667 -10.833 56.5 -32.5 77.5s-46.834 31.5 -75.501 31.5c-30.667 0 -56.5 -10.5 -77.5 -31.5s-31.5 -46.833 -31.5 -77.5v-855h-294v855c0 110.667 39.667 205.5 119 284.5s174 118.5 284 118.5c48.667 0 94.667 -8 138 -24s82.666 -38.667 117.999 -68
c35.333 29.333 74.666 52 117.999 68s89.333 24 138 24c102 0 191.667 -34.667 269 -104s121.333 -155.666 132 -258.999c34.667 10 71.667 15 111 15c122 0 219.667 -37 293 -111s110 -171.333 110 -292c0 -187.333 -35.667 -356.333 -107 -507
s-179.333 -284.334 -324 -401.001zM1703 1012v-588.999c72 76 126.333 161.667 163 257s55 204.666 55 327.999c0 31.333 -10.833 57.333 -32.5 78s-47.167 31 -76.5 31c-30 0 -55.667 -10 -77 -30s-32 -45 -32 -75z" />
    <glyph glyph-name="uni264E" unicode="&#x264e;" 
d="M2133 553l-0.00292969 -294.999h-692v306c86 29.333 156.833 82.333 212.5 159s83.5 161.667 83.5 255c0 120 -42.833 222.833 -128.5 308.5s-188.5 128.5 -308.5 128.5s-222.833 -42.833 -308.5 -128.5s-128.5 -188.5 -128.5 -308.5
c0 -94.667 27.833 -180.167 83.5 -256.5s126.167 -128.833 211.5 -157.5v-306h-692v295h238c-43.333 61.333 -76.666 127.833 -99.999 199.5s-35 146.834 -35 225.501c0 130 32.333 251.167 97 363.5s153.334 201.666 266.001 267.999s235.334 99.5 368.001 99.5
c200 0 372 -72 516 -216s216 -315.667 216 -515c0 -78.667 -12 -153.834 -36 -225.501s-57.667 -138.167 -101 -199.5h238zM2133 136.001v-294h-1667v294h1667z" />
    <glyph glyph-name="uni264F" unicode="&#x264f;" 
d="M1888 -281l-0.00195312 277h-110c-112.667 0 -210 40.833 -292 122.5s-123 179.5 -123 293.5v839c0 34 -11.833 62.833 -35.5 86.5s-52.5 35.5 -86.5 35.5s-62.833 -11.833 -86.5 -35.5s-35.5 -52.5 -35.5 -86.5v-896h-294v896c0 33.333 -11.833 62 -35.5 86
s-52.167 36 -85.5 36c-34 0 -62.833 -12 -86.5 -36s-35.5 -52.667 -35.5 -86v-896h-294v896c0 114.667 40.667 212.667 122 294s179.333 122 294 122c50.667 0 99 -8.66699 145 -26s87.333 -41.666 124 -72.999c36 31.333 76.667 55.666 122 72.999s94 26 146 26
c114.667 0 212.834 -41 294.501 -123s122.5 -179.667 122.5 -293v-839c0 -33.333 11.833 -62 35.5 -86s51.834 -36 84.501 -36h110v278l424 -424z" />
    <glyph glyph-name="uni2650" unicode="&#x2650;" 
d="M2117 1549v-1092h-276v622l-622 -622l259 -259l-194 -195l-259 260l-347 -348l-195 195l347 347l-259 260l195 193l259 -259l622 622h-622v276h1092z" />
    <glyph glyph-name="uni2651" unicode="&#x2651;" 
d="M2105.5 94.5c-95.667 -95.667 -209.831 -143.5 -342.498 -143.5c-50 0 -97.333 7 -142 21s-86.334 33.333 -125.001 58c-40 -80.667 -99.833 -145.334 -179.5 -194.001s-165.5 -73 -257.5 -73v276c58.667 0 109.334 21.333 152.001 64s64 93.334 64 152.001v903
c0 58.667 -21.333 109.334 -64 152.001s-93.334 64 -152.001 64c-59.333 0 -110.333 -21.167 -153 -63.5s-64 -93.166 -64 -152.499v-721h-275v721c0 58.667 -21.333 109.334 -64 152.001s-93.334 64 -152.001 64v276c69.333 0 134.333 -13.667 195 -41
s113.334 -64.333 158.001 -111c45.333 46.667 98.166 83.667 158.499 111s125.833 41 196.5 41c134.667 0 250.334 -48.333 347.001 -145s145 -212.334 145 -347.001v-282c32 15.333 65.667 27.166 101 35.499s72.333 12.5 111 12.5
c133.333 0 247.666 -47.833 342.999 -143.5s143 -210.167 143 -343.5c0 -132.667 -47.833 -246.834 -143.5 -342.501zM1912.5 587c-41 42 -90.833 63.001 -149.5 63.001c-59.333 0 -109.5 -20.833 -150.5 -62.5s-61.5 -91.834 -61.5 -150.501
c0 -57.333 20.5 -106.833 61.5 -148.5s91.167 -62.5 150.5 -62.5c58.667 0 108.5 20.833 149.5 62.5s61.5 91.167 61.5 148.5c0 58 -20.5 108 -61.5 150z" />
    <glyph glyph-name="uni2652" unicode="&#x2652;" 
d="M1948 650l252 -173v-320l-7 -10l-245 169l-323 -222l-322 222l-324 -222l-323 222l-245 -169l-11 17v309l256 177l323 -223l324 223l322 -223zM2200 1204v-321l-7 -10l-245 170l-323 -223l-322 223l-324 -223l-323 223l-245 -170l-11 17v311l256 175l323 -222l324 222
l322 -222l323 222z" />
    <glyph glyph-name="uni2653" unicode="&#x2653;" 
d="M2166 602h-336c10.667 -132.667 34.5 -266.5 71.5 -401.5s83.167 -259.5 138.5 -373.5h-324c-49.333 120.667 -90 248.167 -122 382.5s-52 265.166 -60 392.499h-483c-8.66699 -132 -29 -265 -61 -399s-72.667 -259.333 -122 -376h-322
c52 106.667 97.167 228.334 135.5 365.001s62.833 273.334 73.5 410.001h-321v295h321c-10.667 132 -34.5 265.333 -71.5 400s-82.833 259.667 -137.5 375h322c52 -125.333 93.333 -253.833 124 -385.5s50.334 -261.5 59.001 -389.5h483
c8 123.333 27.333 250.666 58 381.999s72 262.333 124 393h324c-58.667 -123.333 -105.834 -251.333 -141.501 -384s-58.5 -263 -68.5 -391h336v-295z" />
    <glyph glyph-name="spade" unicode="&#x2660;" 
d="M1319 1683l47.999 -28c133.333 -80 267.666 -180.667 402.999 -302s240 -246.333 314 -375s111 -254.334 111 -377.001c0 -127.333 -46 -237 -138 -329s-201.667 -138 -329 -138c-58 0 -112.667 9.66699 -164 29s-97.666 46.666 -138.999 81.999
c16.667 -102 41.334 -196.167 74.001 -282.5s52.334 -132.833 59.001 -139.5c1.33301 -3.33301 2.5 -6.83301 3.5 -10.5s1.5 -7.16699 1.5 -10.5c0 -10 -3.83301 -18.833 -11.5 -26.5s-17.167 -11.5 -28.5 -11.5h-447c-10.667 0 -20 3.83301 -28 11.5s-12 16.5 -12 26.5
s5 23.5 15 40.5s28.667 63.5 56 139.5s49.666 163.667 66.999 263c-41.333 -35.333 -87.666 -62.666 -138.999 -81.999s-105.333 -29 -162 -29c-128.667 0 -239 46 -331 138s-138 201.667 -138 329c0 126.667 39 255.5 117 386.5s184.167 255.833 318.5 374.5
s265.5 216.334 393.5 293.001l48 28l9 4c2.66699 1.33301 5.66699 2 9 2s6.66602 -0.666992 9.99902 -2z" />
    <glyph glyph-name="club" unicode="&#x2663;" 
d="M2117.5 218c-91.667 -92 -202.169 -138.002 -331.502 -138.002c-69.333 0 -134.166 14.167 -194.499 42.5s-111.833 66.5 -154.5 114.5c14 -68.667 30.667 -131.167 50 -187.5s38 -103.166 56 -140.499l15 -32c1.33301 -2.66699 2.5 -5.66699 3.5 -9
s1.5 -6.66602 1.5 -9.99902c0 -11.333 -3.83301 -20.5 -11.5 -27.5s-17.167 -10.5 -28.5 -10.5h-448c-9.33301 0 -18.166 3.5 -26.499 10.5s-12.5 16.167 -12.5 27.5c0 8.66699 6 24 18 46s28.833 63.333 50.5 124s41.167 130.334 58.5 209.001
c-43.333 -48 -95 -86.167 -155 -114.5s-125.333 -42.5 -196 -42.5c-128 0 -237.833 46 -329.5 138s-137.5 202 -137.5 330s46.167 238 138.5 330s201.833 138 328.5 138c22.667 0 44.667 -2 66 -6c-14.667 31.333 -26.167 63.833 -34.5 97.5s-12.5 68.834 -12.5 105.501
c0 127.333 46 237.166 138 329.499s202.333 138.5 331 138.5c127.333 0 237 -45.833 329 -137.5s138 -201.834 138 -330.501c0 -72 -15.333 -139.667 -46 -203c22 4 43.667 6 65 6c128 0 238.167 -46 330.5 -138s138.5 -202 138.5 -330s-45.833 -238 -137.5 -330z" />
    <glyph glyph-name="heart" unicode="&#x2665;" 
d="M2074.5 683.5c-67.667 -122.333 -167.5 -244.169 -299.5 -365.502s-268.333 -224.333 -409 -309l-47 -28c-5.33301 -4 -11.666 -6 -18.999 -6c-8 0 -14.333 2 -19 6l-47 28c-134 79.333 -268 180 -402 302s-235.667 244.833 -305 368.5s-104 243.834 -104 360.501
c0 124.667 45 232.167 135 322.5s198 135.5 324 135.5c89.333 0 172.333 -24.833 249 -74.5s133 -114.834 169 -195.501c37.333 82.667 94.166 148.334 170.499 197.001s158.833 73 247.5 73c126.667 0 234.667 -45.167 324 -135.5s134 -197.833 134 -322.5
c0 -115.333 -33.833 -234.166 -101.5 -356.499z" />
    <glyph glyph-name="diamond" unicode="&#x2666;" 
d="M2093 763c5.33301 -7.33301 8.00098 -15.666 8.00098 -24.999c0 -4 -0.5 -8.16699 -1.5 -12.5s-3.16699 -8.16602 -6.5 -11.499l-763 -976c-7.33301 -10 -17.333 -15 -30 -15s-23.334 5 -32.001 15l-761 976c-3.33301 3.33301 -5.5 7.16602 -6.5 11.499
s-1.5 8.5 -1.5 12.5c0 9.33301 2.66699 17.666 8 24.999l761 975c3.33301 5.33301 8 9 14 11s12 3 18 3c5.33301 0 10.833 -1 16.5 -3s10.167 -5.66699 13.5 -11z" />
    <glyph glyph-name="uni2668" unicode="&#x2668;" 
d="M831 346c8 16.667 15.1689 41.501 21.502 74.501s9.5 72.167 9.5 117.5c0 99.333 -16.5 202.5 -49.5 309.5s-49.5 200.833 -49.5 281.5c0 87.333 17.667 164 53 230s80.666 117 135.999 153s91 54 107 54c5.33301 0 10.166 -1.5 14.499 -4.5s6.5 -7.83301 6.5 -14.5
c0 -9.33301 -3.66699 -15.666 -11 -18.999c-7.33301 0 -20 -17.833 -38 -53.5s-27 -90.834 -27 -165.501c0 -91.333 14 -192 42 -302s42 -201 42 -273c0 -103.333 -21.5 -192.833 -64.5 -268.5s-101.833 -131.5 -176.5 -167.5c-1.33301 0 -2.83301 -0.333008 -4.5 -1
s-3.16699 -1 -4.5 -1c-5.33301 0 -10 2 -14 6s-6 8.66699 -6 14s1.33301 9.66602 4 12.999zM1192 846.001c-32.667 106 -49.002 199.999 -49.002 281.999c0 86.667 17.5 163.334 52.5 230.001s80 118 135 154s91.167 54 108.5 54c6 0 10.833 -2 14.5 -6
s5.5 -8.66699 5.5 -14c0 -8.66699 -6.16699 -17.167 -18.5 -25.5s-25.166 -30 -38.499 -65s-20 -84.167 -20 -147.5c0 -92 14 -192.5 42 -301.5s42 -200.5 42 -274.5c0 -84.667 -14.667 -160.5 -44 -227.5s-67.166 -118.5 -113.499 -154.5s-76.5 -54 -90.5 -54
c-6 0 -11.167 2.16699 -15.5 6.5s-6.5 9.5 -6.5 15.5c0 4 3.16699 10.833 9.5 20.5s13.833 32.167 22.5 67.5s13 79.333 13 132c0 99.333 -16.333 202 -49 308zM1580 329c10.667 21.333 20.1631 49.3301 28.4961 83.9971s12.5 75.667 12.5 123c0 98 -16.667 200.333 -50 307
s-50 202 -50 286c0 86.667 17.5 163 52.5 229s80.167 117.167 135.5 153.5s91.333 54.5 108 54.5c6 0 11.167 -1.83301 15.5 -5.5s6.5 -8.5 6.5 -14.5c0 -7.33301 -6 -15 -18 -23s-24.833 -29.5 -38.5 -64.5s-20.5 -84.833 -20.5 -149.5
c0 -91.333 13.833 -191.166 41.5 -299.499s41.5 -200.166 41.5 -275.499c0 -87.333 -15.167 -164.166 -45.5 -230.499s-68.166 -117.166 -113.499 -152.499s-72.666 -53 -81.999 -53c-1.33301 0 -2.66602 -0.333008 -3.99902 -1s-2.66602 -1 -3.99902 -1
c-4.66699 0 -9.16699 2 -13.5 6s-6.5 8.66699 -6.5 14s1.33301 9.66602 4 12.999zM2104 120.497c-82.667 -87 -195.502 -155.831 -338.502 -206.498s-298.167 -76 -465.5 -76s-322.666 25.5 -465.999 76.5s-256.333 120 -339 207s-124 180.5 -124 280.5
c0 52.667 11 102.667 33 150s52.667 91.166 92 131.499s63.333 62 72 65s16.334 4.5 23.001 4.5c9.33301 0 17.333 -3 24 -9s10 -14 10 -24c0 -10.667 -10.5 -34.834 -31.5 -72.501s-31.5 -79.167 -31.5 -124.5c0 -120.667 72.333 -224.667 217 -312
s318.334 -131 521.001 -131c132.667 0 257.167 20.5 373.5 61.5s206.333 95.667 270 164s95.5 140.833 95.5 217.5c0 34 -6.66699 66.5 -20 97.5s-23.833 51.833 -31.5 62.5s-11.5 23 -11.5 37c0 10 3 18 9 24s13.667 9 23 9c27.333 0 70.833 -37 130.499 -111
c59.667 -74 89.5 -154 89.5 -240c0 -100.667 -41.333 -194.5 -124 -281.5z" />
    <glyph glyph-name="uni267B" unicode="&#x267b;" 
d="M1196.5 1435c7.66699 4 18.168 5.99902 31.501 5.99902h17c2.66699 0 11.167 0.333008 25.5 1s32.166 1 53.499 1h172c29.333 -1.33301 52.166 -7 68.499 -17s37.5 -35.333 63.5 -76l43 -65l20 -30c14 -23.333 26.5 -40.166 37.5 -50.499s21.833 -15.5 32.5 -15.5
c5.33301 0 18.333 6.16699 39 18.5s39.334 18.5 56.001 18.5c9.33301 0 17 -3 23 -9s9 -16.667 9 -32c0 -8 -0.666992 -16.333 -2 -25l-4 -24c-5.33301 -42.667 -12.5 -84 -21.5 -124s-16.5 -76.833 -22.5 -110.5s-32.667 -50.5 -80 -50.5l-58 1
c-74.667 0 -143 5.16699 -205 15.5s-93 25.833 -93 46.5c0 17.333 15.167 36.666 45.5 57.999s45.5 39.333 45.5 54c0 20.667 -18 48.334 -54 83.001s-85.333 91.167 -148 169.5s-96 118.333 -100 120s-6 7.16699 -6 16.5s3.83301 16 11.5 20zM1271.5 1074
c-27.667 -32 -57.999 -71.999 -90.999 -119.999s-60.833 -72 -83.5 -72c-8 0 -26.833 9.83301 -56.5 29.5s-62.167 43.167 -97.5 70.5l-27 19c-23.333 16 -40.833 30.333 -52.5 43s-17.834 25 -18.501 37c0 26 10.833 53.333 32.5 82s52.167 75.167 91.5 139.5
s72 96.5 98 96.5c22.667 0 55.667 -21.5 99 -64.5l106 -107.5c27.333 -28.667 41 -52.334 41 -71.001c0 -22.667 -13.833 -50 -41.5 -82zM761.002 330l-26 -73.002c-16 -44 -29.333 -76.333 -40 -97s-19.334 -31 -26.001 -31c-4 0 -9 3.33301 -15 10s-12 15 -18 25l-8 13
c-25.333 33.333 -49.166 71.166 -71.499 113.499s-40 74.666 -53 96.999s-19.5 44.833 -19.5 67.5l2 22c1.33301 12.667 14 44.167 38 94.5l37 77.5l16 30c5.33301 10 9.83301 19.5 13.5 28.5s5.5 17.5 5.5 25.5c0 8.66699 -5 16 -15 22l-32 19
c-12 6.66699 -23 14.167 -33 22.5s-15 18.833 -15 31.5c0 24 43.333 49.333 130 76s134 42.334 142 47.001s24.333 7 49 7c20.667 0 40.167 -8.66699 58.5 -26s36.833 -48 55.5 -92l34 -79l30.5 -80.5c15 -39 22.5 -65.167 22.5 -78.5c0 -11.333 -3 -20.666 -9 -27.999
s-15.333 -11 -28 -11c-12 0 -29.167 5.33301 -51.5 16s-38.5 16 -48.5 16c-18 0 -34.5 -22.667 -49.5 -68s-24.5 -70.166 -28.5 -74.499s-19.667 -45.166 -47 -122.499zM1174 146.998c-10 -66 -18.834 -107.001 -26.501 -123.001s-25.167 -24 -52.5 -24
c-44.667 0 -90 1.5 -136 4.5s-91.667 6.16699 -137 9.5c-22.667 0 -42 3.33301 -58 10s-24 19.334 -24 38.001c0 46 7.83301 92.167 23.5 138.5s30.834 88.666 45.501 126.999s34 57.5 58 57.5c7.33301 0 15 -0.333008 23 -1l21 -3c117.333 -13.333 193 -21.666 227 -24.999
s51 -19.333 51 -48c0 -41.333 -5 -95 -15 -161zM2059.5 324.997c-18.333 -36 -33.834 -63.501 -46.501 -82.501s-26.5 -44.167 -41.5 -75.5s-30.5 -54.5 -46.5 -69.5s-45 -23.833 -87 -26.5l-95.5 -6c-21.667 -1.33301 -49.667 -4.33301 -84 -9s-55.5 -11 -63.5 -19
c-5.33301 -5.33301 -8 -13 -8 -23l1 -39v-22c0 -14 -2.66699 -25.667 -8 -35s-12.666 -14 -21.999 -14c-12 0 -20.167 2.5 -24.5 7.5s-41.666 37.833 -111.999 98.5s-111.5 100.834 -123.5 120.501s-18 36.167 -18 49.5c0 16.667 19.333 51.167 58 103.5l105 139.5
c31.333 40.667 58 61 80 61c11.333 0 19.166 -3.5 23.499 -10.5s6.5 -15.833 6.5 -26.5c0 -6 0.5 -11.5 1.5 -16.5s1.5 -15.167 1.5 -30.5c0 -20.667 3.16699 -36.5 9.5 -47.5s17.833 -16.5 34.5 -16.5c28.667 0 69.5 4.5 122.5 13.5l153.5 26.5l73 12
c23.333 4 44.833 7.33301 64.5 10s34.5 4 44.5 4c7.33301 0 14 -0.833008 20 -2.5s9 -5.5 9 -11.5s-9.16699 -27 -27.5 -63zM2077.5 477.996c-25 -14 -56.334 -25.168 -94.001 -33.501s-68.5 -16.5 -92.5 -24.5s-48.667 -12 -74 -12c-17.333 0 -38.5 19.333 -63.5 58
s-43.167 74.834 -54.5 108.501s-22.333 61.167 -33 82.5c-9.33301 18.667 -14 39 -14 61c0 20.667 33.667 44.5 101 71.5s102.333 41.167 105 42.5l48 18c16.667 6 30.334 9 41.001 9c28 0 54.667 -30.167 80 -90.5l63 -148.5c16.667 -38.667 25 -69 25 -91
c0 -20 -12.5 -37 -37.5 -51z" />
    <glyph glyph-name="uni267F" unicode="&#x267f;" 
d="M1541 184l66.001 3.99805c-16 -139.333 -76.833 -256 -182.5 -350s-228.167 -141 -367.5 -141c-150.667 0 -280.334 54.333 -389.001 163s-163 238.334 -163 389.001c0 133.333 43.5 251.5 130.5 354.5s195.833 165.833 326.5 188.5c2 -43.333 5.66699 -86 11 -128
s14 -83.333 26 -124c-69.333 -14.667 -126.333 -49.334 -171 -104.001s-67 -117 -67 -187c0 -81.333 29.167 -151.166 87.5 -209.499s127.833 -87.5 208.5 -87.5c71.333 0 134.5 22.833 189.5 68.5s89.167 102.834 102.5 171.501c22 -4 43.5 -6.66699 64.5 -8
s40.833 -2 59.5 -2c23.333 0 46 0.666992 68 2zM1868 -86.002c-16.667 55.333 -31.334 110.832 -44.001 166.499s-29.167 107.334 -49.5 155.001s-64.5 71.5 -132.5 71.5c-26.667 0 -53.5 -1.16699 -80.5 -3.5s-55.833 -3.5 -86.5 -3.5c-112 0 -192 20.833 -240 62.5
s-86.333 102.5 -115 182.5s-43 211.667 -43 395c0 87.333 13.833 155.666 41.5 204.999s66.834 74 117.501 74c46.667 0 83.5 -9.33301 110.5 -28s58.5 -52.167 94.5 -100.5s80.833 -86.5 134.5 -114.5s110 -48.5 169 -61.5s104.667 -23.667 137 -32s66.5 -25.5 102.5 -51.5
s54 -56.333 54 -91c0 -20.667 -5.66699 -37 -17 -49s-25.666 -18 -42.999 -18c-32.667 0 -61.5 8.66699 -86.5 26s-55.5 27 -91.5 29s-72.667 5.5 -110 10.5s-83.333 21.167 -138 48.5l-30 14c-8 4 -13.667 6 -17 6c-6 0 -9 -4.66699 -9 -14c1.33301 -62.667 7 -106 17 -130
s26.667 -44.5 50 -61.5s69 -30.5 137 -40.5s119.333 -25.167 154 -45.5s62.5 -49.833 83.5 -88.5s35.5 -76.667 43.5 -114l5 -29c21.333 -137.333 41.333 -213.333 60 -228s41.834 -21.667 69.5 -21c27.667 0.666992 51 -6.16602 70 -20.499s28.5 -32.833 28.5 -55.5
c0 -34.667 -23.667 -64.667 -71 -90s-95.333 -38 -144 -38c-70.667 0 -114.334 27.667 -131.001 83zM1054.5 1682c43.667 43.333 95.166 65 154.499 65c60.667 0 112.834 -21.667 156.501 -65s65.5 -95.333 65.5 -156c0 -61.333 -21.5 -113.666 -64.5 -156.999
s-95.5 -65 -157.5 -65c-58.667 0 -110 21.667 -154 65s-66 95.666 -66 156.999c0 60.667 21.833 112.667 65.5 156z" />
    <glyph glyph-name="uni2693" unicode="&#x2693;" 
d="M2204 303c-12 0 -25.667 7.83008 -41 23.4971s-29 23.5 -41 23.5c-16 0 -25.833 -8.66699 -29.5 -26s-22.667 -60.5 -57 -129.5s-80.833 -136.167 -139.5 -201.5s-127.334 -117.666 -206.001 -156.999s-162 -67.5 -250 -84.5s-174.833 -18.167 -260.5 -3.5
s-166.5 39.334 -242.5 74.001s-142.667 79.667 -200 135s-106 118.333 -146 189c-33.333 56.667 -56.5 104.834 -69.5 144.501s-27.5 59.5 -43.5 59.5c-12 0 -25.667 -7.83301 -41 -23.5s-29 -23.5 -41 -23.5c-22.667 0 -34 11.667 -34 35c0 18.667 5.5 46.667 16.5 84
s23.5 75 37.5 113l18 47c8 20.667 18.833 37 32.5 49s28.834 18 45.501 18c20.667 0 44.167 -8.16699 70.5 -24.5l77.5 -50c25.333 -17 49.666 -36.167 72.999 -57.5s35 -38 35 -50c0 -21.333 -17.667 -32 -53 -32c-16 0 -29.167 -1.16699 -39.5 -3.5
s-15.5 -9.16602 -15.5 -20.499c0 -33.333 43.333 -94.833 130 -184.5s170 -134.5 250 -134.5c38 0 65.667 12.167 83 36.5s27.333 54.166 30 89.499l7 72l29 245l4 30c1.33301 10 2 20.333 2 31c0 44.667 -27.333 74.667 -82 90s-105 26.666 -151 33.999
s-69 30.666 -69 69.999c0 27.333 8 46.833 24 58.5s56 17.5 120 17.5c79.333 0 129.833 6.66699 151.5 20s32.5 50.333 32.5 111c0 20.667 -3.66699 37.834 -11 51.501s-18.333 24.834 -33 33.501l-29 15c-62 32 -110.333 74.333 -145 127s-52 110.334 -52 173.001
c0 86 34.5 158.167 103.5 216.5s150.833 87.5 245.5 87.5s176.334 -29 245.001 -87s103 -129.667 103 -215c0 -84 -20.667 -150.167 -62 -198.5s-86.166 -83 -134.499 -104s-72.5 -53.833 -72.5 -98.5c0 -12 1 -24 3 -36l4 -35c2.66699 -20 16.667 -35.167 42 -45.5
s70.666 -15.5 135.999 -15.5c60 0 98.667 -6.16699 116 -18.5s26 -31.5 26 -57.5c0 -38.667 -20.833 -61.5 -62.5 -68.5s-79.834 -15.167 -114.501 -24.5s-64 -20.166 -88 -32.499s-36 -35.833 -36 -70.5c0 -12 0.833008 -22.5 2.5 -31.5s2.83398 -18.167 3.50098 -27.5
l27 -245l7 -71c3.33301 -34 13.666 -63.667 30.999 -89s45 -38 83 -38c42.667 0 90.334 16 143.001 48s97.667 70.333 135 115l22 25c18.667 22 36.5 45.667 53.5 71s25.5 45.333 25.5 60c0 10 -4.33301 16.5 -13 19.5s-22 4.5 -40 4.5c-16.667 0 -30 2.33301 -40 7
s-15 12.667 -15 24c0 17.333 21.5 42.166 64.5 74.499s80.667 58.5 113 78.5s58.5 30 78.5 30c40 0 75.333 -44.333 106 -133s46 -148.334 46 -179.001c0 -22.667 -11.333 -34 -34 -34zM1395 1293c26 26.667 39 58.334 39 95.001c0 37.333 -13 69 -39 95s-57.667 39 -95 39
s-69 -13 -95 -39s-39 -57.667 -39 -95c0 -36.667 13 -68.334 39 -95.001s57.667 -40 95 -40s69 13.333 95 40z" />
    <glyph glyph-name="uni26A0" unicode="&#x26a0;" 
d="M2414 -175c5.33301 -9.33301 8.00098 -19.333 8.00098 -30c0 -16 -5.83301 -29.667 -17.5 -41s-25.5 -17 -41.5 -17h-2127c-15.333 0 -29 5.5 -41 16.5s-18 24.833 -18 41.5c0 10.667 2.66699 20.667 8 30l1064 1843c5.33301 9.33301 12.666 16.5 21.999 21.5
s19 7.5 29 7.5c22 0 39 -9.66699 51 -29zM2262 -145l-962 1665l-962 -1665h1924zM1214 403c-3.33301 0 -6.16602 1.16699 -8.49902 3.5s-3.5 4.5 -3.5 6.5l-47 677c0 3.33301 1.33301 6 4 8s5 3 7 3h267c3.33301 0 6.16602 -1.16699 8.49902 -3.5s3.5 -4.83301 3.5 -7.5
l-48 -677c0 -2 -1 -4.16699 -3 -6.5s-4.66699 -3.5 -8 -3.5h-172zM1402 149c25.333 -23.333 38.001 -56.999 38.001 -100.999c0 -40 -12 -72.5 -36 -97.5s-58 -37.5 -102 -37.5s-78.667 11.667 -104 35s-38 56.666 -38 99.999c0 44.667 12.167 78.5 36.5 101.5
s59.5 34.5 105.5 34.5c41.333 0 74.666 -11.667 99.999 -35z" />
    <glyph glyph-name="uni26A1" unicode="&#x26a1;" 
d="M2125 770c3.33301 0 6.66602 -1.66699 10 -5c3.33301 -3.33301 5 -6.66602 5 -9.99902c0 -9.33301 -3.33301 -16 -10 -20l-1619 -1018c-2 -2 -5.33301 -3 -10 -3s-9.16699 1.66699 -13.5 5s-6.5 8 -6.5 14c0 2 0.333008 4.33301 1 7s2 5 4 7l711 773l-723 213
c-3.33301 1.33301 -6.5 3.66602 -9.5 6.99902s-4.5 7.33301 -4.5 12c0 7.33301 2.66699 13 8 17l1617 986c2.66699 2 6.33398 3 11 3c4 0 8.16699 -1.66699 12.5 -5s6.5 -8 6.5 -14c0 -2 -0.333008 -4.33301 -1 -7s-2 -5 -4 -7l-710 -773z" />
    <glyph glyph-name="uni26AA" unicode="&#x26aa;" 
d="M1465 596.5c-46 -45.667 -101 -68.5 -165 -68.5s-119 22.833 -165 68.5s-69 100.834 -69 165.501c0 64 23 119 69 165s101 69 165 69s119 -23 165 -69s69 -101 69 -165c0 -64.667 -23 -119.834 -69 -165.501zM1382 844c-22.667 22.667 -50 34 -82 34
s-59.333 -11.333 -82 -34s-34 -50 -34 -82s11.333 -59.333 34 -82s50 -34 82 -34s59.333 11.333 82 34s34 50 34 82s-11.333 59.333 -34 82z" />
    <glyph glyph-name="uni26AB" unicode="&#x26ab;" 
d="M1465 597.5c-46 -45.667 -101 -68.5 -165 -68.5s-119 22.833 -165 68.5s-69 100.834 -69 165.501c0 64 23 119 69 165s101 69 165 69s119 -23 165 -69s69 -101 69 -165c0 -64.667 -23 -119.834 -69 -165.501z" />
    <glyph glyph-name="uni26BD" unicode="&#x26bd;" 
d="M2205 203c-94.667 -162.667 -223.001 -290.168 -385.001 -382.501s-335.333 -138.5 -520 -138.5c-185.333 0 -359 46.333 -521 139s-290.167 220.334 -384.5 383.001s-141.5 337.667 -141.5 525c0 185.333 46.333 359 139 521s220.167 290.333 382.5 385
s337.5 142 525.5 142c187.333 0 362.333 -47.333 525 -142s290.334 -223 383.001 -385s139 -335.667 139 -521c0 -188 -47.333 -363.333 -142 -526zM2008 548.999c40.667 24.667 79.499 52.499 116.499 83.499s71.833 66.167 104.5 105.5c0 72 -7.83301 138.833 -23.5 200.5
s-27 98.834 -34 111.501s-31 38.167 -72 76.5s-87.833 73.833 -140.5 106.5c-26 -24 -55.667 -47 -89 -69s-60.166 -40.5 -80.499 -55.5s-41.5 -25.5 -63.5 -31.5c2 -20.667 3.66699 -44.5 5 -71.5s2 -56.5 2 -88.5c0 -27.333 -0.666992 -55.833 -2 -85.5
s-3.33301 -61.167 -6 -94.5c42.667 -12 95.5 -38.5 158.5 -79.5s104.5 -77.167 124.5 -108.5zM370.998 725.998c0 -114 19.5 -221.832 58.5 -323.499s92.5 -192.834 160.5 -273.501c13.333 3.33301 26.333 6.33301 39 9s25.667 5.66699 39 9
c-17.333 39.333 -33 85.5 -47 138.5s-22.333 110.5 -25 172.5c-32.667 21.333 -65.5 55 -98.5 101s-59.167 102 -78.5 168h-23c-8 0 -16.333 -0.333008 -25 -1zM654.998 1397c-11.333 -43.333 -19 -84.168 -23 -122.501s-6 -72.166 -6 -101.499v-21
c0 -6.66699 0.333008 -12.667 1 -18c37.333 -3.33301 72.333 -9.33301 105 -18l102 -26l22 -6c7.33301 -2.66699 14.666 -5.66699 21.999 -9c59.333 59.333 125 108.833 197 148.5s146 69.167 222 88.5c-1.33301 8.66699 -2 17 -2 25v23c0 32 2.83301 70 8.5 114
s14.5 77.667 26.5 101c-44.667 20 -89.834 36.333 -135.501 49s-75.167 17.667 -88.5 15s-43.166 -10.667 -89.499 -24s-96.166 -34.333 -149.499 -63c-78 -42 -148.667 -93.667 -212 -155zM1118 -81.0029c66.667 19.333 126.334 43.1689 179.001 71.502
s99.667 59.5 141 93.5c-22 43.333 -44.333 99.833 -67 169.5s-35.334 118.5 -38.001 146.5c-82.667 15.333 -163.167 39.166 -241.5 71.499s-147.166 68.833 -206.499 109.5c-18.667 -12.667 -38.334 -23.5 -59.001 -32.5s-40 -18.833 -58 -29.5l-58 -31
c-20 -10.667 -38.333 -19.334 -55 -26.001c3.33301 -64.667 13 -124.5 29 -179.5s33.333 -102.167 52 -141.5l22 -16c12.667 -10 44.5 -31 95.5 -63s139.167 -79.667 264.5 -143zM1666 736c2.66699 32 4.66699 62.502 6 91.502s2 56.5 2 82.5c0 34 -0.833008 65.5 -2.5 94.5
s-3.5 54.5 -5.5 76.5c-8 4 -24.333 12.667 -49 26l-84 46c-78 42 -129.667 68.667 -155 80s-39 17.666 -41 18.999l-14 7c-74.667 -18 -146 -46 -214 -84s-130.333 -84.333 -187 -139c2 -5.33301 3.33301 -10.666 4 -15.999v-17c0 -42 -0.666992 -84 -2 -126s-2 -84 -2 -126
c0 -20 0.666992 -40.167 2 -60.5s2 -42.166 2 -65.499c54 -36.667 118.5 -70.334 193.5 -101.001s150.833 -52.667 227.5 -66c54 75.333 116.5 138.666 187.5 189.999s114.833 80.666 131.5 87.999zM2097 1207c-44.667 74 -99.333 141 -164 201
c10.667 -12.667 22.167 -32 34.5 -58s18.5 -47.333 18.5 -64c16.667 -10 34.5 -21.5 53.5 -34.5s38.167 -27.833 57.5 -44.5zM1559 1622c-41.333 11.333 -83.5 20.333 -126.5 27s-88.5 10 -136.5 10c-6 0 -10.667 -0.333008 -14 -1c20 -7.33301 38.5 -14.5 55.5 -21.5
s32.833 -14.167 47.5 -21.5c3.33301 1.33301 13.5 3 30.5 5s45.5 3 85.5 3h28c9.33301 0 19.333 -0.333008 30 -1zM577.999 1314c-60 -74 -107.667 -155.664 -143 -244.997s-56 -184 -62 -284h20c6 0 12.333 0.333008 19 1c3.33301 53.333 23.5 115.166 60.5 185.499
s68.833 117.833 95.5 142.5c0 7.33301 -0.333008 15.666 -1 24.999v27c0 20.667 0.833008 43.167 2.5 67.5s4.5 51.166 8.5 80.499zM1203 -194.995c15.333 -2 31.166 -3.33398 47.499 -4.00098s32.833 -1 49.5 -1c118.667 0 229.834 20.5 333.501 61.5
s197.167 97.5 280.5 169.5c-12.667 14 -24.167 27.333 -34.5 40s-19.166 24 -26.499 34c-37.333 -20.667 -86.833 -37.334 -148.5 -50.001s-125.834 -19 -192.501 -19c-6.66699 0 -13 0.333008 -19 1h-19c-53.333 -43.333 -106.5 -78.166 -159.5 -104.499
s-101.167 -46.166 -144.5 -59.499zM1958 74.0039c74.667 74.667 135.5 160.667 182.5 258s75.5 202.333 85.5 315c-38 -38.667 -77.167 -72.667 -117.5 -102s-72.833 -49.666 -97.5 -60.999c-3.33301 -56.667 -15.5 -116.667 -36.5 -180s-46.167 -116.333 -75.5 -159
c6.66699 -9.33301 15 -20.333 25 -33s21.333 -25.334 34 -38.001z" />
    <glyph glyph-name="uni26BE" unicode="&#x26be;" 
d="M2208 211c-92.667 -162 -220.332 -290.333 -382.999 -385s-337.667 -142 -525 -142c-188.667 0 -364.334 47.833 -527.001 143.5s-290 224.167 -382 385.5s-138 334.333 -138 519c0 186.667 46.833 361 140.5 523s221.5 289.833 383.5 383.5s336.333 140.5 523 140.5
c184.667 0 358 -46.167 520 -138.5s290.333 -219.833 385 -382.5s142 -338 142 -526c0 -185.333 -46.333 -359 -139 -521zM2225 817c-2.66699 27.333 -6.33594 54.667 -11.002 82c-3.33301 2 -9.66602 4.66699 -19 8c-9.33301 3.33301 -19.666 5 -31 5
c-5.33301 0 -11.5 -1.16699 -18.5 -3.5s-13.167 -3.5 -18.5 -3.5c-7.33301 0 -13.666 2.66699 -19 8c-5.33301 5.33301 -8 11.666 -8 18.999c0 14.667 -3 28.167 -9 40.5s-12.333 21.166 -19 26.499l-8 7c-3.33301 3.33301 -6 6.83301 -8 10.5s-3 7.5 -3 11.5
c0 7.33301 2.66699 13.5 8 18.5s11.666 7.5 19 7.5c11.333 0 24.333 -9.5 39 -28.5s24.667 -39.167 30 -60.5h14c14.667 0 27 -1.33301 37 -4c-5.33301 15.333 -10.333 31.833 -15 49.5s-10 34.834 -16 51.501c-3.33301 -1.33301 -7.33301 -3.16602 -12 -5.49902
s-9 -3.5 -13 -3.5c-14 0 -23.333 7.5 -28 22.5s-13.667 28 -27 39s-22.333 16.5 -27 16.5c-12 4.66699 -18 13.334 -18 26.001c0 7.33301 2.83301 13.5 8.5 18.5s11.834 7.5 18.5 7.5c7.33301 0 17.166 -4 29.5 -12c12.333 -8 22.166 -15.333 29.5 -22l-23 43
c-6 11.333 -12 21 -18 29c-7.33301 2 -13.666 3 -19 3c-5.33301 0 -10 -0.5 -14 -1.5s-7 -1.5 -9 -1.5c-7.33301 0 -13.833 2.5 -19.5 7.5s-8.5 11.167 -8.5 18.5c0 9.33301 3 16 9 20s14 7 24 9c-16 22 -33 44 -51 66c-2 -2.66699 -6.33301 -4 -13 -4
c-7.33301 0 -13.833 2.5 -19.5 7.5s-8.5 11.167 -8.5 18.5c0 6.66699 2 12 6 16c-88.667 90 -190.5 159.333 -305.5 208s-235.167 73 -360.5 73c-68.667 0 -136.667 -7.66699 -204 -23c-4.66699 -11.333 -13 -17 -25 -17c-6 0 -11.333 2.33301 -16 7l-56 -18
c1.33301 -2 2.66602 -5.16699 3.99902 -9.5s2 -7.83301 2 -10.5c0 -6.66699 -2.5 -12.667 -7.5 -18s-11.167 -8 -18.5 -8c-6 0 -11.167 1.5 -15.5 4.5s-9.5 10.5 -15.5 22.5c-10.667 -4 -21.5 -8.5 -32.5 -13.5s-21.5 -10.167 -31.5 -15.5c6 -20 17.167 -34.667 33.5 -44
s24.5 -20 24.5 -32c0 -8.66699 -2.5 -15.167 -7.5 -19.5s-11.167 -6.5 -18.5 -6.5l-11 2c-11.333 6 -23.666 15.333 -36.999 28s-23.666 28 -30.999 46c-6.66699 -3.33301 -15.167 -8 -25.5 -14s-21.166 -13 -32.499 -21l-34 -24c-11.333 -8.66699 -21 -16.334 -29 -23.001
c3.33301 0 6.33301 -0.333008 9 -1h9c15.333 0 27.666 2.5 36.999 7.5s16.666 7.5 21.999 7.5c16 0 24.833 -7.33301 26.5 -22s10.167 -29.834 25.5 -45.501s23 -22.5 23 -20.5c5.33301 -2 9.33301 -5.16699 12 -9.5s4 -8.83301 4 -13.5
c0 -7.33301 -2.66699 -13.666 -8 -18.999s-11.666 -8 -18.999 -8c-12 0 -27.167 9.16699 -45.5 27.5s-29.833 34.5 -34.5 48.5c-16 -4.66699 -30.667 -7 -44 -7c-17.333 0 -31.333 2 -42 6s-17.667 7 -21 9c-96 -88 -169.833 -191.667 -221.5 -311s-77.5 -243 -77.5 -371
c0 -36 2 -71.5 6 -106.5s9.66699 -69.833 17 -104.5c4.66699 2 9 3 13 3c6 0 12.167 -1.83301 18.5 -5.5s17.5 -5.5 33.5 -5.5s27.5 2 34.5 6s13.833 6 20.5 6c15.333 0 24.666 -11.167 27.999 -33.5s13.333 -39.166 30 -50.499s25 -22.666 25 -33.999
c0 -6.66699 -2.83301 -12.334 -8.5 -17.001s-11.5 -7 -17.5 -7c-4 0 -8 1 -12 3c-3.33301 0 -13.333 8 -30 24s-28.334 34 -35.001 54c-10.667 -2.66699 -22 -4 -34 -4c-10.667 0 -20.5 1 -29.5 3s-16.167 4 -21.5 6c3.33301 -12.667 7.33301 -25 12 -37l12 -35
c5.33301 1.33301 9.33301 2 12 2c7.33301 0 13.5 -2.33301 18.5 -7s7.5 -10 7.5 -16c2 -19.333 9.33301 -35.833 22 -49.5s20.334 -20.5 23.001 -20.5c4.66699 -2 8 -5.16699 10 -9.5s3 -8.5 3 -12.5c0 -7.33301 -2 -13.666 -6 -18.999s-11.333 -8 -22 -8
c74.667 -124 172.667 -225.5 294 -304.5s252.333 -126.833 393 -143.5c-10 8 -20.5 13.333 -31.5 16s-20.833 4 -29.5 4h-9.5c-2.33301 0 -4.83301 -0.333008 -7.5 -1c-7.33301 0 -13.5 2.66699 -18.5 8s-7.5 11.666 -7.5 18.999c0 10.667 3.33301 18 10 22s17.667 6 33 6
c10 0 21.833 -1.5 35.5 -4.5s27.5 -8.5 41.5 -16.5c9.33301 14 22.833 26.833 40.5 38.5s33.834 17.5 48.501 17.5c7.33301 0 13.5 -2.5 18.5 -7.5s7.5 -11.167 7.5 -18.5c0 -6 -1.83301 -11.5 -5.5 -16.5s-8.5 -8.16699 -14.5 -9.5l-8 -2
c-16.667 -4.66699 -30.667 -15.5 -42 -32.5s-17.666 -25.833 -18.999 -26.5c22.667 -2 46 -3 70 -3c163.333 0 317 41.167 461 123.5s258 196 342 341s126 300.167 126 465.5c0 29.333 -1.33301 57.666 -4 84.999zM1682 643.001c24 -5.33301 52.333 -23.999 85 -55.999
c2.66699 -3.33301 4 -8.33301 4 -15c0 -7.33301 -2.5 -13.5 -7.5 -18.5s-11.167 -7.5 -18.5 -7.5c-10 0 -22 7.66699 -36 23s-34 23.666 -60 24.999c-6 0 -11.833 2.16699 -17.5 6.5s-8.5 11.166 -8.5 20.499c0 7.33301 1.16699 14.5 3.5 21.5s3.5 13.5 3.5 19.5
c0 14.667 -1.66699 26.334 -5 35.001l-7 15c-4 5.33301 -6 10.333 -6 15c0 6.66699 2.66699 12.667 8 18s11.333 8 18 8c14.667 0 26 -9.83301 34 -29.5s12 -39.5 12 -59.5v-10c0 -4 -0.666992 -7.66699 -2 -11zM1271 35.002c8.66699 0 15.1641 -2.50098 19.4971 -7.50098
s6.5 -11.167 6.5 -18.5s-2.66699 -13.833 -8 -19.5s-11.666 -8.5 -18.999 -8.5h-10c-20.667 -1.33301 -38 -9.16602 -52 -23.499s-25.667 -21.5 -35 -21.5s-16.666 4.83301 -21.999 14.5s-14.333 18.5 -27 26.5s-23.667 12.667 -33 14l-9 1
c-7.33301 1.33301 -13 4.33301 -17 9s-6 10 -6 16c0 8 2.5 14.833 7.5 20.5s11.5 8.5 19.5 8.5c10 0 24 -3.66699 42 -11s34.333 -18.333 49 -33c11.333 10 24.333 17.5 39 22.5s29.334 8.16699 44.001 9.5zM2064 857.001c18 -2.66699 34.166 -7.83398 48.499 -15.501
s25.833 -15.5 34.5 -23.5l7 -8c4 -5.33301 6 -11.333 6 -18c0 -6 -2.5 -11.833 -7.5 -17.5s-11.833 -8.5 -20.5 -8.5c-7.33301 0 -13.333 3.33301 -18 10c-8 7.33301 -18.167 14 -30.5 20s-25.166 9 -38.5 9h-11c-7.33301 0 -13.5 2.5 -18.5 7.5s-7.5 11.167 -7.5 18.5
c0 5.33301 0.5 10.333 1.5 15s1.5 9.66699 1.5 15c0 16.667 -3 30.334 -9 41.001l-10 17c-4.66699 4.66699 -7 10 -7 16c0 7.33301 2.83301 13.5 8.5 18.5s11.834 7.5 18.501 7.5c8 0 14.667 -2.66699 20 -8l7 -10c6 -10 11.667 -22.5 17 -37.5s8 -31.167 8 -48.5z
M1932 784.001c16.667 -6 31.165 -14.001 43.498 -24.001s21.833 -20 28.5 -30l6 -9c1.33301 -5.33301 2 -9.33301 2 -12c0 -6 -2.5 -12.167 -7.5 -18.5s-11.167 -9.5 -18.5 -9.5c-8.66699 0 -20.167 9.33301 -34.5 28s-33.833 28.667 -58.5 30c-6 0 -11.333 2.33301 -16 7
s-7 10.667 -7 18c0 8 2 16.5 6 25.5s6 17.833 6 26.5c0 8 -0.666992 14.833 -2 20.5s-2.66602 10.5 -3.99902 14.5l-5 11c-1.33301 2.66699 -2 5.66699 -2 9c0 6 2.33301 12 7 18s10.334 9 17.001 9c12.667 0 22.667 -8 30 -24s11 -35.333 11 -58v-16
c0 -5.33301 -0.666992 -10.666 -2 -15.999zM1446.99 481c16.667 -4 31.998 -10.5 45.998 -19.5s24 -17.167 30 -24.5l7 -10c2.66699 -3.33301 4 -8.33301 4 -15c0 -7.33301 -2.66699 -13.833 -8 -19.5s-11.333 -8.5 -18 -8.5c-4 0 -7.83301 1.33301 -11.5 4
s-7.16699 5.66699 -10.5 9l-7 8c-6.66699 6.66699 -15.667 13 -27 19s-24.666 9.33301 -39.999 10c-7.33301 0 -13.5 2.66699 -18.5 8s-7.5 11.666 -7.5 18.999s1.5 14.5 4.5 21.5s4.5 13.833 4.5 20.5c0 16 -3 29.333 -9 40s-9 18 -9 22c0 7.33301 2.33301 13.666 7 18.999
s10.334 8 17.001 8c14.667 0 26.167 -10.667 34.5 -32s12.5 -41.666 12.5 -60.999v-8c0 -3.33301 -0.333008 -6.66602 -1 -9.99902zM725.492 642c-5 -5.33301 -11.168 -8.00195 -18.501 -8.00195c-8 0 -20.667 7.66699 -38 23s-30.333 34.333 -39 57
c-5.33301 -1.33301 -10.666 -2.33301 -15.999 -3s-10.333 -1 -15 -1c-14.667 0 -32.167 3.33301 -52.5 10s-30.5 16.334 -30.5 29.001c0 6.66699 2.83301 12.834 8.5 18.501s12.167 8.5 19.5 8.5c6 0 12.5 -2 19.5 -6s18.167 -6 33.5 -6c13.333 0 24.333 2 33 6s15 6 19 6
c7.33301 0 13.5 -2.33301 18.5 -7s7.5 -10 7.5 -16c1.33301 -14.667 6.5 -28.334 15.5 -41.001s18.333 -21.667 28 -27s14.5 -13.333 14.5 -24c0 -7.33301 -2.5 -13.666 -7.5 -18.999zM1445.49 342.998c-5 -4.66699 -10.5 -7.00098 -16.5 -7.00098
c-6.66699 0 -13.5 1.66699 -20.5 5s-16.833 5 -29.5 5c-13.333 0 -25 -2.5 -35 -7.5s-17.333 -7.5 -22 -7.5c-16.667 0 -25.667 7.5 -27 22.5s-9.5 30.333 -24.5 46s-22.5 22.5 -22.5 20.5c-10 4 -15 11.333 -15 22c0 8 2.83301 14.5 8.5 19.5s11.5 7.5 17.5 7.5
c5.33301 0 9 -0.333008 11 -1c34.667 -25.333 57.334 -50.666 68.001 -75.999c14 4.66699 28.333 7 43 7c17.333 0 33.666 -2.5 48.999 -7.5s23 -15.167 23 -30.5c0 -7.33301 -2.5 -13.333 -7.5 -18zM815.491 1207.5c-5 -4.33301 -11.1689 -6.50098 -18.502 -6.50098
c-11.333 0 -25.5 8 -42.5 24s-29.167 33 -36.5 51c-14 -4.66699 -28.667 -7 -44 -7c-23.333 0 -41.333 3.16699 -54 9.5s-19 15.166 -19 26.499c0 7.33301 2.83301 13.5 8.5 18.5s11.5 7.5 17.5 7.5c2.66699 0 6.66699 -1.33301 12 -4s17 -4 35 -4c16.667 0 29 2.33301 37 7
s13.667 7.33398 17 8.00098h6c14.667 0 24.334 -10.333 29.001 -31s15.834 -36.5 33.501 -47.5s26.5 -22.5 26.5 -34.5c0 -7.33301 -2.5 -13.166 -7.5 -17.499zM762.989 1002c6 0 11.332 -2.83301 15.999 -8.5s7 -11.5 7 -17.5c0 -9.33301 -3.16699 -16 -9.5 -20
s-13.166 -6 -20.499 -6c-17.333 2.66699 -33.666 8.16699 -48.999 16.5s-28.333 18.5 -39 30.5c-16 -11.333 -31.833 -18.833 -47.5 -22.5s-28.834 -5.5 -39.501 -5.5c-9.33301 0 -17.166 2 -23.499 6s-9.5 10.667 -9.5 20c0 7.33301 2.5 13.833 7.5 19.5
s11.167 8.5 18.5 8.5c1.33301 0 2.33301 -0.333008 3 -1s2.66699 -1 6 -1c21.333 0 39.333 6.83301 54 20.5s25.667 20.5 33 20.5c11.333 0 19.833 -5 25.5 -15s14.667 -19.333 27 -28s23.166 -13.667 32.499 -15zM1806.99 713.996
c20.667 -6.66699 38.834 -17.999 54.501 -33.999s23.5 -25.667 23.5 -29l2 -6c0 -2 0.333008 -4 1 -6c0 -6 -2.5 -12 -7.5 -18s-11.167 -9 -18.5 -9c-11.333 0 -22.5 8.66699 -33.5 26s-30.833 27.666 -59.5 30.999c-6.66699 0 -12.334 2.5 -17.001 7.5s-7 10.833 -7 17.5
c0 7.33301 2.16699 15.666 6.5 24.999s6.5 18.333 6.5 27c0 16.667 -2.33301 28.167 -7 34.5s-7 12.5 -7 18.5c0 7.33301 2.5 14 7.5 20s11.167 9 18.5 9c10.667 0 20 -7.83301 28 -23.5s12 -35.167 12 -58.5v-16c0 -5.33301 -1 -10.666 -3 -15.999zM1563.99 561.997
c21.333 -5.33301 40.667 -15.332 58 -29.999s26 -23.334 26 -26.001c2.66699 -4.66699 4 -9.66699 4 -15c0 -7.33301 -2.33301 -13.5 -7 -18.5s-11 -7.5 -19 -7.5c-8.66699 0 -16 3.66699 -22 11c0 3.33301 -7.16699 10.333 -21.5 21s-31.166 16 -50.499 16
c-8 0 -14.5 2.5 -19.5 7.5s-7.5 11.167 -7.5 18.5s1.16699 14.666 3.5 21.999s3.5 14 3.5 20c0 10.667 -0.833008 19.334 -2.5 26.001s-3.5 12 -5.5 16l-6 11c-2 3.33301 -3 7 -3 11c0 7.33301 2.66699 13.666 8 18.999s11.666 8 18.999 8
c12.667 0 23.167 -9.83301 31.5 -29.5s12.5 -40.167 12.5 -61.5v-9c0 -3.33301 -0.666992 -6.66602 -2 -9.99902zM651.989 557.998c9.33301 -8 14 -16.001 14 -24.001c0 -8.66699 -3 -15 -9 -19s-11.667 -6 -17 -6c-11.333 0 -25 7.66699 -41 23s-28 34.666 -36 57.999
c-6 -1.33301 -12.167 -2.33301 -18.5 -3s-12.166 -1 -17.499 -1c-22 0 -38.167 2.33301 -48.5 7s-15.5 7.33398 -15.5 8.00098c-10 4 -15 11.667 -15 23c0 7.33301 2.83301 13.5 8.5 18.5s11.834 7.5 18.501 7.5c3.33301 0 6.66602 -0.666992 9.99902 -2l9 -4
c3.33301 -1.33301 7.83301 -2.66602 13.5 -3.99902s12.167 -2 19.5 -2c15.333 0 26.166 2 32.499 6s13.5 6 21.5 6c16.667 0 26.667 -10.833 30 -32.5s14 -39.167 32 -52.5zM763.989 850.997c4.66699 -4.66699 6.99902 -10.332 6.99902 -16.999
c0 -8.66699 -3 -15.167 -9 -19.5s-12.667 -6.5 -20 -6.5c-12 0 -26.667 4.16699 -44 12.5s-32.333 19.833 -45 34.5c-16 -11.333 -32.5 -18.833 -49.5 -22.5s-30.5 -5.5 -40.5 -5.5c-9.33301 0 -16.666 2.16699 -21.999 6.5s-8 11.166 -8 20.499
c0 7.33301 2.5 13.5 7.5 18.5s11.167 7.5 18.5 7.5h6c2.66699 0 5.66699 -0.333008 9 -1c23.333 0 40.5 7 51.5 21s22.5 21 34.5 21c9.33301 -1.33301 19.166 -10 29.499 -26s28.5 -27.333 54.5 -34c8.66699 -2 15.334 -5.33301 20.001 -10zM1377.99 257.999
c9.33301 -4.66699 13.998 -13.332 13.998 -25.999c0 -7.33301 -2.83301 -13.333 -8.5 -18s-11.5 -7 -17.5 -7c-6.66699 0 -13 1.66699 -19 5s-15.667 5 -29 5c-14.667 0 -27 -2.66699 -37 -8s-17 -8 -21 -8c-14.667 0 -24.5 11 -29.5 33s-16.833 39.333 -35.5 52l-9 5
c-10 4.66699 -15 12 -15 22c0 7.33301 2.33301 13.666 7 18.999s10.667 8 18 8c2.66699 0 6.66699 -0.666992 12 -2c3.33301 0 13.5 -7 30.5 -21s29.833 -31.667 38.5 -53c7.33301 2 14.333 3.33301 21 4s13.334 1 20.001 1c16 0 29.833 -1.83301 41.5 -5.5
s17.834 -5.5 18.501 -5.5zM777.986 1145c6 -1.33301 11.333 -4.5 16 -9.5s7 -10.5 7 -16.5c0 -9.33301 -3.16699 -16.166 -9.5 -20.499s-13.166 -6.5 -20.499 -6.5c-18.667 3.33301 -35.334 9.16602 -50.001 17.499s-27.334 18.166 -38.001 29.499
c-15.333 -11.333 -30.833 -18.666 -46.5 -21.999s-29.167 -5 -40.5 -5c-9.33301 0 -17.333 2 -24 6s-10 10.667 -10 20c0 7.33301 2.66699 13.5 8 18.5s11.666 7.5 18.999 7.5c30.667 0 52.334 6.83301 65.001 20.5s23.334 20.5 32.001 20.5
c11.333 0 22.5 -8.66699 33.5 -26s27.833 -28 50.5 -32zM1314.99 128.001c10 -4 14.999 -12.332 14.999 -24.999c0 -8 -2.5 -14.333 -7.5 -19s-11.167 -7 -18.5 -7c-5.33301 0 -11.5 1.83301 -18.5 5.5s-16.833 5.5 -29.5 5.5c-13.333 0 -25.166 -2.66699 -35.499 -8
s-17.5 -8 -21.5 -8c-15.333 0 -24.333 8.33301 -27 25s-9.83398 31.5 -21.501 44.5s-20.167 19.5 -25.5 19.5c-5.33301 2 -9.16602 5.16699 -11.499 9.5s-3.5 8.83301 -3.5 13.5c0 7.33301 2.33301 13.833 7 19.5s10.334 8.5 17.001 8.5c2 0 4 -0.333008 6 -1l7 -2
c-1.33301 1.33301 7 -4.33398 25 -17.001s32.333 -31.667 43 -57c7.33301 2 14.166 3.33301 20.499 4s12.833 1 19.5 1c18.667 0 38.667 -4 60 -12z" />
    <glyph glyph-name="uni26C4" unicode="&#x26c4;" 
d="M2247 808l-257.998 -199.998c25.333 -48.667 44.166 -98.167 56.499 -148.5s18.5 -100.166 18.5 -149.499c0 -121.333 -34 -234.5 -102 -339.5s-160.5 -185.833 -277.5 -242.5s-249.167 -85 -396.5 -85s-279.833 28.333 -397.5 85s-210.334 137.5 -278.001 242.5
s-101.5 218.167 -101.5 339.5c0 54 7.33301 108.167 22 162.5s37 107.5 67 159.5l-249 223c-12 12 -18 24.667 -18 38c0 14.667 5.16699 27 15.5 37s22.5 15 36.5 15c12.667 0 24 -4 34 -12l101 -90l21 74c3.33301 11.333 9.5 20.5 18.5 27.5s19.167 10.5 30.5 10.5
c15.333 0 27.833 -4.83301 37.5 -14.5s14.5 -21.834 14.5 -36.501v-7c0 -2 -0.333008 -4.66699 -1 -8l-34 -124l52 -46c17.333 25.333 38.833 50.166 64.5 74.499s52.5 47.166 80.5 68.499c-38 48.667 -67.667 102.5 -89 161.5s-32 121.5 -32 187.5
c0 160.667 60.167 299 180.5 415s265.5 174 435.5 174c168.667 0 313.5 -57.833 434.5 -173.5s181.5 -254.167 181.5 -415.5c0 -68.667 -11.5 -133.5 -34.5 -194.5s-54.833 -116.5 -95.5 -166.5c57.333 -45.333 106.666 -96 147.999 -152l67 50l-21 130l-1 9
c0 13.333 5.33301 25.333 16 36s23.334 16 38.001 16c12 0 22.833 -4 32.5 -12s15.5 -18.667 17.5 -32l11 -74l91 70c9.33301 7.33301 19.666 11 31 11c13.333 0 25.333 -5.16699 36 -15.5s16 -22.5 16 -36.5c0 -18 -6.66699 -32 -20 -42zM1908 483.002
c-21.333 58.667 -49.668 110.665 -85.001 155.998s-71.333 81.333 -108 108s-55 61 -55 103c0 31.333 12 60.833 36 88.5s45.667 65.834 65 114.501s29 101.334 29 158.001c0 128 -48.5 237.667 -145.5 329s-212.167 137 -345.5 137c-134 0 -249.333 -45.667 -346 -137
s-145 -201 -145 -329c0 -54.667 9.33301 -105.834 28 -153.501s38.834 -84.667 60.501 -111s32.5 -54.833 32.5 -85.5c0 -41.333 -19.333 -76.833 -58 -106.5s-75.5 -65 -110.5 -106s-64.833 -91.333 -89.5 -151s-37 -122.167 -37 -187.5c0 -102 29.833 -196 89.5 -282
s139.167 -151 238.5 -195s208 -66 326 -66c116.667 0 224.5 21.667 323.5 65s178.5 107.833 238.5 193.5s90 179.834 90 282.501c0 58 -10.667 116.333 -32 175zM1431.5 985c-3.66699 -4 -17.499 -7.16797 -41.499 -9.50098s-53.667 -3.5 -89 -3.5
c-28.667 0 -55.167 1 -79.5 3s-44 3.5 -59 4.5s-22.5 15.167 -22.5 42.5c0 8.66699 0.833008 16.834 2.5 24.501s6.16699 11.5 13.5 11.5c27.333 0 54.333 -0.333008 81 -1s53.667 -1 81 -1c15.333 0 30.666 0.333008 45.999 1s31.333 1 48 1c9.33301 0 15.833 -2 19.5 -6
s5.5 -12.667 5.5 -26c0 -23.333 -1.83301 -37 -5.5 -41zM1548 1135.5c-15.333 -19.667 -33.666 -29.5 -54.999 -29.5c-22 0 -41.667 9 -59 27s-26 41 -26 69c0 28.667 7.66699 52.667 23 72s33.666 29 54.999 29s40.833 -9 58.5 -27s26.5 -41 26.5 -69
s-7.66699 -51.833 -23 -71.5zM1166 1202c-1.33301 -27.333 -10.001 -50.168 -26.001 -68.501s-35.333 -27.5 -58 -27.5c-20.667 0 -39 9.33301 -55 28s-24 41.334 -24 68.001c0 28 7.83301 51.833 23.5 71.5s35.167 29.5 58.5 29.5c22.667 0 41.834 -10 57.501 -30
s23.5 -43.667 23.5 -71z" />
    </font>
</defs>
</svg>
